<svg width="292.000000" height="282.000000" viewBox="0 0 292 282" fill="none" xmlns="http://www.w3.org/2000/svg" xmlns:xlink="http://www.w3.org/1999/xlink">
	<desc>
			Created with Pixso.
	</desc>
	<defs/>
	<g opacity="0.040000">
		<path id="Vector" d="M287.06 136.264L61.0708 136.264C63.6388 93.441 100.521 59.3572 145.474 59.3572C178.321 59.3572 208.477 77.9698 222.271 106.763C223.421 109.148 226.356 110.188 228.826 109.078C231.296 107.967 232.372 105.133 231.223 102.747C215.814 70.6003 182.161 49.8147 145.474 49.8147C95.0669 49.8147 53.7335 88.1737 51.1654 136.24L9.92981 136.24C12.5223 65.9473 72.5659 9.51892 145.988 9.51892C207.01 9.51892 260.963 49.1298 277.228 105.865C277.961 108.392 280.676 109.88 283.293 109.196C285.91 108.487 287.451 105.865 286.742 103.338C269.328 42.4926 211.437 0 146.012 0C65.4977 0 0 63.2545 0 141.012C0 143.634 2.20117 145.783 4.94043 145.783L51.1899 145.783C53.7579 193.874 95.0669 232.209 145.499 232.209C182.185 232.209 215.839 211.423 231.247 179.276C232.397 176.891 231.321 174.056 228.85 172.946C226.38 171.836 223.445 172.875 222.296 175.261C208.502 204.054 178.345 222.666 145.499 222.666C100.521 222.666 63.6388 188.583 61.0952 145.759L282.07 145.759C279.478 216.053 219.434 272.481 146.012 272.481C84.9904 272.481 31.0367 232.87 14.7725 176.135C14.0387 173.607 11.3239 172.119 8.70691 172.804C6.08997 173.513 4.54907 176.135 5.25842 178.662C22.6722 239.508 80.5635 282 145.988 282C226.502 282 292 218.745 292 140.988C292 138.366 289.799 136.217 287.06 136.217L287.06 136.264Z" fill="#FFFFFF" fill-opacity="1.000000" fill-rule="nonzero"/>
	</g>
</svg>
