<svg width="61" height="49" viewBox="0 0 61 49" fill="none" xmlns="http://www.w3.org/2000/svg">
<path d="M21.84 0C23.4 0 24.544 0.624003 25.272 1.87201C26 3.12 25.948 4.472 25.116 5.928L16.692 21.372C16.38 21.892 16.38 22.36 16.692 22.776C17.108 23.192 17.576 23.4 18.096 23.4H21.84C22.672 23.4 23.4 23.712 24.024 24.336C24.648 24.96 24.96 25.688 24.96 26.52V45.24C24.96 46.072 24.648 46.8 24.024 47.424C23.4 48.048 22.672 48.36 21.84 48.36H3.12C2.288 48.36 1.56 48.048 0.936 47.424C0.312 46.8 0 46.072 0 45.24V26.988C0 24.908 0.312 22.932 0.936 21.06C1.56 19.188 2.392 17.576 3.432 16.224L13.416 3.12001C13.936 2.392 14.56 1.716 15.288 1.09201C16.016 0.364004 17.16 0 18.72 0H21.84ZM56.16 0C57.72 0 58.864 0.624003 59.592 1.87201C60.32 3.12 60.268 4.472 59.436 5.928L51.012 21.372C50.7 21.892 50.7 22.36 51.012 22.776C51.428 23.192 51.896 23.4 52.416 23.4H56.16C56.992 23.4 57.72 23.712 58.344 24.336C58.968 24.96 59.28 25.688 59.28 26.52V45.24C59.28 46.072 58.968 46.8 58.344 47.424C57.72 48.048 56.992 48.36 56.16 48.36H37.44C36.608 48.36 35.88 48.048 35.256 47.424C34.632 46.8 34.32 46.072 34.32 45.24V26.988C34.32 24.908 34.632 22.932 35.256 21.06C35.88 19.188 36.712 17.576 37.752 16.224L47.736 3.12001C48.256 2.392 48.88 1.716 49.608 1.09201C50.336 0.364004 51.48 0 53.04 0H56.16Z" fill="#303030"/>
</svg>
