<svg width="42.000000" height="42.000000" viewBox="0 0 42 42" fill="none" xmlns="http://www.w3.org/2000/svg" xmlns:xlink="http://www.w3.org/1999/xlink">
	<desc>
			Created with Pixso.
	</desc>
	<defs>
		<clipPath id="clip290_212">
			<rect id="Instagram" width="42.000000" height="42.000000" fill="white" fill-opacity="0"/>
		</clipPath>
	</defs>
	<g clip-path="url(#clip290_212)">
		<path id="Subtract" d="M13.6187 10.2622C14.3476 9.979 15.1823 9.78516 16.4039 9.72949C17.6279 9.67285 18.0193 9.66016 21.1355 9.66016C24.2516 9.66016 24.6428 9.67383 25.8662 9.72949C27.0869 9.78418 27.9211 9.979 28.6514 10.2622C29.405 10.5552 30.0455 10.9468 30.6832 11.585C31.3207 12.2231 31.7129 12.8623 32.0067 13.6162C32.2903 14.3447 32.484 15.1792 32.5396 16.3999C32.5953 17.6226 32.6082 18.0137 32.6082 21.1279C32.6082 24.2422 32.5953 24.6318 32.5396 25.8555C32.4849 27.0767 32.2903 27.9102 32.0067 28.6392C31.7129 29.3931 31.3218 30.0332 30.6832 30.6709C30.0445 31.3081 29.405 31.6997 28.6505 31.9932C27.9211 32.2769 27.0869 32.4702 25.8653 32.5259C24.6418 32.5825 24.2507 32.5957 21.1346 32.5957C18.0184 32.5957 17.6279 32.5815 16.4039 32.5259C15.1823 32.4702 14.349 32.2769 13.6187 31.9932C12.8637 31.6997 12.2245 31.3076 11.586 30.6709C10.9474 30.0337 10.5554 29.3931 10.2625 28.6392C9.97882 27.9102 9.78516 27.0767 9.72955 25.8555C9.67297 24.6328 9.66003 24.2422 9.66003 21.1279C9.66003 18.0137 9.67297 17.6226 9.72955 16.3999C9.78516 15.1792 9.97882 14.3452 10.2625 13.6162C10.5554 12.8618 10.9474 12.2222 11.586 11.585C12.2247 10.9478 12.8637 10.5552 13.6187 10.2622ZM14.368 30.0679C14.7721 30.2251 15.3801 30.4111 16.4988 30.4624C17.708 30.5176 18.0703 30.5288 21.1346 30.5288C24.1989 30.5288 24.5621 30.5176 25.7717 30.4624C26.8904 30.4116 27.4987 30.2251 27.9025 30.0679C28.4382 29.8594 28.821 29.6108 29.2224 29.21C29.6237 28.8091 29.8721 28.4272 30.0807 27.8916C30.2372 27.4878 30.4244 26.8804 30.4754 25.7622C30.5311 24.5522 30.5421 24.1904 30.5421 21.1279C30.5421 18.0654 30.5311 17.7036 30.4754 16.4937C30.4246 15.3755 30.2382 14.7676 30.0807 14.3638C29.8721 13.8286 29.6243 13.4463 29.2224 13.0449C28.8205 12.644 28.4382 12.3945 27.9025 12.187C27.4974 12.0312 26.8904 11.8438 25.7717 11.7925C24.5612 11.7378 24.1974 11.7261 21.1346 11.7261C18.0717 11.7261 17.7084 11.7373 16.4988 11.7925C15.3801 11.8438 14.7719 12.0298 14.368 12.187C13.8314 12.3945 13.4495 12.6431 13.0482 13.0449C12.6468 13.4468 12.3984 13.8286 12.1898 14.3638C12.0338 14.769 11.8461 15.3755 11.7951 16.4937C11.7404 17.7036 11.7284 18.0654 11.7284 21.1279C11.7284 24.1904 11.7395 24.5532 11.7951 25.7622C11.846 26.8804 12.0323 27.4883 12.1898 27.8916C12.3975 28.4272 12.6462 28.8091 13.0482 29.21C13.45 29.6108 13.8323 29.8594 14.368 30.0679ZM26.1147 15.7705C25.9635 15.5439 25.8828 15.2778 25.8829 15.0059C25.8832 14.6411 26.0284 14.291 26.2866 14.0332C26.5448 13.7754 26.8948 13.6304 27.2599 13.6304L27.2604 13.6304C27.5328 13.6304 27.799 13.7114 28.0253 13.8623C28.2517 14.0137 28.4281 14.229 28.5322 14.4805C28.6364 14.7319 28.6635 15.0083 28.6102 15.2754C28.557 15.5425 28.4258 15.7876 28.2332 15.98C28.0405 16.1724 27.7951 16.3032 27.528 16.356C27.2609 16.4092 26.984 16.3818 26.7324 16.2773C26.4809 16.1733 26.2659 15.9966 26.1147 15.7705ZM21.1346 27.0161C17.8804 27.0161 15.2426 24.3799 15.2426 21.1279C15.2426 17.8755 17.8804 15.2393 21.1346 15.2393C24.3887 15.2393 27.0266 17.8755 27.0266 21.1279C27.0266 24.3799 24.3887 27.0161 21.1346 27.0161ZM21.1346 17.3052C19.0223 17.3052 17.3104 19.0166 17.3104 21.1279C17.3104 23.2388 19.0223 24.9507 21.1346 24.9507C23.2469 24.9507 24.9597 23.2388 24.9597 21.1279C24.9597 19.0166 23.2469 17.3052 21.1346 17.3052Z" clip-rule="evenodd" fill="#CECECE" fill-opacity="1.000000" fill-rule="evenodd"/>
	</g>
</svg>
