<svg width="128.000061" height="126.897827" viewBox="0 0 128 126.898" fill="none" xmlns="http://www.w3.org/2000/svg" xmlns:xlink="http://www.w3.org/1999/xlink">
	<desc>
			Created with Pixso.
	</desc>
	<defs/>
	<path id="Vector" d="M76.5688 126.897L59.2559 126.897C58.3522 126.897 57.6229 126.168 57.6229 125.264L57.6229 38.9855C57.6229 38.0818 58.3522 37.3525 59.2559 37.3525L76.5688 37.3525C77.4725 37.3525 78.2018 38.0818 78.2018 38.9855L78.2018 125.264C78.2018 126.168 77.4725 126.897 76.5688 126.897ZM60.8889 123.631L74.9358 123.631L74.9358 40.6185L60.8889 40.6185L60.8889 123.631Z" fill="#303030" fill-opacity="1.000000" fill-rule="nonzero"/>
	<path id="Vector" d="M47.0164 126.897L30.9085 126.897C30.0048 126.897 29.2755 126.168 29.2755 125.264L29.2755 69.4099C29.2755 68.5062 30.0048 67.7769 30.9085 67.7769L47.0164 67.7769C47.9201 67.7769 48.6494 68.5062 48.6494 69.4099L48.6494 125.264C48.6494 126.168 47.9201 126.897 47.0164 126.897ZM32.5415 123.632L45.3834 123.632L45.3834 71.0428L32.5415 71.0428L32.5415 123.632Z" fill="#303030" fill-opacity="1.000000" fill-rule="nonzero"/>
	<path id="Vector" d="M18.6531 126.897L1.64154 126.897C0.737854 126.897 0.00854492 126.168 0.00854492 125.264L0.00854492 96.1559C0.00854492 95.2522 0.737854 94.5229 1.64154 94.5229L18.6531 94.5229C19.5569 94.5229 20.2861 95.2522 20.2861 96.1559L20.2861 125.264C20.2861 126.168 19.5569 126.897 18.6531 126.897ZM3.27454 123.631L17.0202 123.631L17.0202 97.7889L3.27454 97.7889L3.27454 123.631Z" fill="#303030" fill-opacity="1.000000" fill-rule="nonzero"/>
	<path id="Vector" d="M107.596 33.4049C100.097 33.4049 93.9927 27.301 93.9927 19.8019C93.9927 12.3029 100.097 6.19897 107.596 6.19897C115.095 6.19897 121.199 12.3029 121.199 19.8019C121.199 27.301 115.095 33.4049 107.596 33.4049ZM107.596 9.46497C101.888 9.46497 97.2587 14.0944 97.2587 19.8019C97.2587 25.5095 101.888 30.1389 107.596 30.1389C113.303 30.1389 117.933 25.5095 117.933 19.8019C117.933 14.0944 113.303 9.46497 107.596 9.46497Z" fill="#303030" fill-opacity="1.000000" fill-rule="nonzero"/>
	<path id="Vector" d="M112.193 126.898L102.982 126.898C97.877 126.898 93.7073 122.744 93.7073 117.623L93.7073 92.0501C89.6486 89.4024 87.1753 84.884 87.1753 80.0326L87.1753 54.4279C87.1753 46.5008 93.6121 40.064 101.539 40.064L113.636 40.064C121.563 40.064 128 46.5008 128 54.4279L128 80.0326C128 84.884 125.527 89.4024 121.468 92.0501L121.468 117.623C121.468 122.728 117.314 126.898 112.193 126.898ZM101.539 43.3141C95.4195 43.3141 90.4413 48.2923 90.4413 54.412L90.4413 80.0167C90.4413 84.012 92.6292 87.7219 96.1488 89.6878C96.6561 89.9732 96.9891 90.5281 96.9891 91.1147L96.9891 117.607C96.9891 120.921 99.6843 123.616 102.998 123.616L112.209 123.616C115.523 123.616 118.218 120.921 118.218 117.607L118.218 91.1147C118.218 90.5281 118.535 89.9732 119.058 89.6878C122.578 87.7061 124.766 83.9962 124.766 80.0167L124.766 54.412C124.766 48.2923 119.788 43.3141 113.668 43.3141L101.571 43.3141L101.539 43.3141Z" fill="#303030" fill-opacity="1.000000" fill-rule="nonzero"/>
	<path id="Vector" d="M1.64148 55.2206C1.02313 55.2206 0.436523 54.8718 0.151184 54.2693C-0.229309 53.4449 0.135315 52.4778 0.943909 52.0973L33.7622 36.9089L67.6111 0.523315C68.2294 -0.142578 69.2599 -0.174255 69.9258 0.444092C70.5917 1.06238 70.6234 2.0929 70.0051 2.75879L35.9343 39.3821C35.7916 39.5407 35.6172 39.6675 35.4269 39.7468L2.32318 55.0779C2.10126 55.173 1.8634 55.2365 1.64148 55.2365L1.64148 55.2206Z" fill="#303030" fill-opacity="1.000000" fill-rule="nonzero"/>
	<path id="Vector" d="M68.816 20.4203C67.9123 20.4203 67.183 19.691 67.183 18.7873L67.183 3.26599L51.6617 3.26599C50.758 3.26599 50.0287 2.53668 50.0287 1.633C50.0287 0.729309 50.758 0 51.6617 0L68.816 0C69.7197 0 70.449 0.729309 70.449 1.633L70.449 18.7873C70.449 19.691 69.7197 20.4203 68.816 20.4203Z" fill="#303030" fill-opacity="1.000000" fill-rule="nonzero"/>
</svg>
