<svg width="34.000000" height="34.000000" viewBox="0 0 34 34" fill="none" xmlns="http://www.w3.org/2000/svg" xmlns:xlink="http://www.w3.org/1999/xlink">
	<desc>
			Created with Pixso.
	</desc>
	<defs/>
	<path id="Subtract" d="M3.77777 34L30.2222 34C32.3087 34 34 32.3086 34 30.2222L34 3.77783C34 1.69141 32.3087 0 30.2222 0L3.77777 0C1.69135 0 0 1.69141 0 3.77783L0 30.2222C0 32.3086 1.69135 34 3.77777 34ZM4.72223 7.74292C4.72223 9.41113 6.06433 10.7639 7.72052 10.7639C9.37677 10.7639 10.718 9.41113 10.718 7.74292C10.718 6.07471 9.37677 4.72217 7.72052 4.72217C6.06433 4.72217 4.72223 6.07471 4.72223 7.74292ZM24.2324 29.2778L29.2778 29.2778L29.2778 18.9131C29.2778 14.5276 26.7919 12.4072 23.3195 12.4072C19.8456 12.4072 18.3837 15.1125 18.3837 15.1125L18.3837 12.9075L13.5213 12.9075L13.5213 29.2778L18.3837 29.2778L18.3837 20.6843C18.3837 18.3818 19.4435 17.0115 21.4723 17.0115C23.3371 17.0115 24.2324 18.3281 24.2324 20.6843L24.2324 29.2778ZM10.28 29.2778L5.20984 29.2778L5.20984 12.9075L10.28 12.9075L10.28 29.2778Z" clip-rule="evenodd" fill="#303030" fill-opacity="1.000000" fill-rule="evenodd"/>
</svg>
