<svg width="207.000000" height="14.000000" viewBox="0 0 207 14" fill="none" xmlns="http://www.w3.org/2000/svg" xmlns:xlink="http://www.w3.org/1999/xlink">
	<desc>
			Created with Pixso.
	</desc>
	<defs>
		<clipPath id="clip290_226">
			<rect id="Layer_1" width="207.000000" height="14.000000" fill="white" fill-opacity="0"/>
		</clipPath>
	</defs>
	<rect id="Layer_1" width="207.000000" height="14.000000" fill="#FFFFFF" fill-opacity="0"/>
	<g clip-path="url(#clip290_226)">
		<path id="Vector" d="M6.51138 9.75562C6.51138 9.34277 6.35934 9.02417 6.05526 8.79517C5.75119 8.5708 5.23247 8.37354 4.49911 8.20288C3.89542 8.07275 3.32752 7.90234 2.79986 7.68701C2.27219 7.47607 1.81608 7.20679 1.42704 6.88379C1.04247 6.56055 0.733925 6.17017 0.510338 5.71265C0.286758 5.25488 0.170494 4.71631 0.170494 4.09277C0.170494 3.52295 0.277809 2.98877 0.496925 2.49536C0.716042 1.99707 1.02459 1.56641 1.42257 1.19409C1.82055 0.825928 2.29008 0.534424 2.82221 0.323486C3.35882 0.108154 3.94462 0.00488281 4.58854 0.00488281C5.23247 0.00488281 5.82721 0.112549 6.37723 0.323486C6.92278 0.534424 7.39677 0.825928 7.78581 1.19409C8.17932 1.56201 8.4834 1.99707 8.70251 2.49536C8.92163 2.99341 9.02895 3.52734 9.02895 4.09277L9.02895 4.38428C9.02895 4.48755 8.98871 4.57739 8.91269 4.65356C8.83667 4.72998 8.74723 4.77026 8.64439 4.77026L6.69472 4.77026C6.59187 4.77026 6.50243 4.72998 6.42641 4.65356C6.3504 4.57739 6.31015 4.48755 6.31015 4.38428L6.31015 4.09277C6.31015 3.70679 6.16258 3.36572 5.86745 3.07422C5.57232 2.78247 5.14751 2.63892 4.59302 2.63892C4.03852 2.63892 3.63607 2.76904 3.34541 3.02466C3.05474 3.28491 2.91165 3.60815 2.91165 3.9939C2.91165 4.37988 3.07263 4.67163 3.39459 4.896C3.71656 5.12036 4.12795 5.28638 4.63326 5.3894C5.30402 5.5332 5.92558 5.70801 6.49796 5.92358C7.07034 6.13428 7.56223 6.4126 7.9781 6.75806C8.39397 7.10352 8.71593 7.51636 8.95293 8.01001C9.18993 8.49902 9.31067 9.08252 9.31067 9.75562C9.31067 10.3882 9.1944 10.9626 8.96188 11.4832C8.72935 11.999 8.40291 12.4478 7.98705 12.8203C7.5667 13.1973 7.07034 13.4844 6.48902 13.6907C5.9077 13.8972 5.27718 14.0005 4.59749 14.0005C3.91779 14.0005 3.3141 13.8882 2.75067 13.6729C2.1917 13.4529 1.70876 13.1523 1.30183 12.771C0.894905 12.3894 0.577415 11.9407 0.344887 11.4248C0.112358 10.9087 -0.00390625 10.3523 -0.00390625 9.75562L-0.00390625 9.17212C-0.00390625 9.06909 0.0363388 8.97925 0.112358 8.90308C0.188377 8.82666 0.277809 8.78638 0.380661 8.78638L2.33927 8.78638C2.44212 8.78638 2.53156 8.82666 2.60757 8.90308C2.68359 8.97925 2.72384 9.07349 2.72384 9.17212L2.72384 9.75562C2.72384 10.2087 2.88482 10.5857 3.20678 10.8909C3.52875 11.1958 3.9938 11.3484 4.59749 11.3484C5.20116 11.3484 5.6394 11.1958 5.98819 10.8909C6.33698 10.5857 6.51138 10.2087 6.51138 9.75562Z" fill="#CECECE" fill-opacity="1.000000" fill-rule="nonzero"/>
		<path id="Vector" d="M19.4601 0.408691C19.487 0.368408 19.5272 0.327881 19.5853 0.283203C19.6435 0.238281 19.7418 0.21582 19.8849 0.21582L21.8346 0.21582C22.0135 0.21582 22.1387 0.296631 22.2102 0.458008C22.2818 0.619629 22.2639 0.772217 22.161 0.915771L18.5479 6.26904C18.4585 6.39917 18.4137 6.50684 18.4227 6.59668C18.4272 6.68628 18.4719 6.78955 18.5479 6.90625L22.5098 13.0537C22.5993 13.1973 22.6082 13.3542 22.5411 13.5293C22.4696 13.7043 22.3265 13.7896 22.1074 13.7896L20.0191 13.7896C19.876 13.7896 19.7731 13.7627 19.7105 13.7134C19.6479 13.6638 19.5987 13.6101 19.5764 13.5562L16.2718 8.26123C16.245 8.22095 16.2092 8.20752 16.1555 8.21191C16.1019 8.21655 16.0795 8.25244 16.0795 8.31958L16.0795 13.3992C16.0795 13.5024 16.0393 13.592 15.9632 13.6685C15.8872 13.7446 15.7978 13.7852 15.6949 13.7852L13.7811 13.7852C13.6782 13.7852 13.5888 13.7446 13.5127 13.6685C13.4367 13.592 13.3965 13.5024 13.3965 13.3992L13.3965 0.601807C13.3965 0.498535 13.4367 0.408691 13.5127 0.33252C13.5888 0.256104 13.6782 0.21582 13.7811 0.21582L15.6949 0.21582C15.7978 0.21582 15.8872 0.256104 15.9632 0.33252C16.0393 0.408691 16.0795 0.50293 16.0795 0.601807L16.0795 5.06201C16.0795 5.12476 16.1063 5.16064 16.1555 5.16968C16.2047 5.17871 16.245 5.16064 16.2718 5.12036L19.4601 0.408691Z" fill="#CECECE" fill-opacity="1.000000" fill-rule="nonzero"/>
		<path id="Vector" d="M28.2125 13.4976C28.1722 13.6904 28.0515 13.7891 27.8458 13.7891L25.8157 13.7891C25.6591 13.7891 25.5518 13.7488 25.4892 13.6636C25.4266 13.5781 25.4043 13.4929 25.4311 13.4033L28.8877 0.502686C28.928 0.30957 29.0487 0.210938 29.2544 0.210938L31.8435 0.210938C32.0492 0.210938 32.17 0.30957 32.2102 0.502686L35.6489 13.3987C35.6758 13.4885 35.6534 13.5781 35.5908 13.6589C35.5282 13.7444 35.4164 13.7847 35.2644 13.7847L33.2342 13.7847C33.0554 13.7847 32.9301 13.686 32.8675 13.4929L32.2683 11.4961C32.2415 11.4199 32.2102 11.3525 32.17 11.2942C32.1297 11.2358 32.0671 11.209 31.9777 11.209L29.0398 11.209C28.8832 11.209 28.7893 11.3076 28.7491 11.5007L28.208 13.4976L28.2125 13.4976ZM29.4869 8.28345C29.4467 8.427 29.5003 8.49438 29.6434 8.49438L31.4232 8.49438C31.5663 8.49438 31.6155 8.42236 31.5797 8.28345L30.654 3.63013C30.6406 3.58081 30.6093 3.55396 30.5557 3.55396L30.5154 3.55396C30.4618 3.55396 30.4305 3.58081 30.417 3.63013L29.4914 8.28345L29.4869 8.28345Z" fill="#CECECE" fill-opacity="1.000000" fill-rule="nonzero"/>
		<path id="Vector" d="M42.723 10.8774C42.723 11.0076 42.7856 11.0703 42.9152 11.0703L47.7447 11.0703C47.8475 11.0703 47.937 11.1106 48.0175 11.187C48.0935 11.2632 48.1337 11.3574 48.1337 11.4563L48.1337 13.3948C48.1337 13.4978 48.0935 13.5876 48.0175 13.6638C47.9415 13.7402 47.8475 13.7805 47.7447 13.7805L40.4021 13.7805C40.2993 13.7805 40.2099 13.7402 40.1338 13.6638C40.0578 13.5876 40.0176 13.4978 40.0176 13.3948L40.0176 0.601807C40.0176 0.498535 40.0578 0.408691 40.1338 0.33252C40.2099 0.256104 40.2993 0.21582 40.4021 0.21582L42.3339 0.21582C42.4368 0.21582 42.5262 0.256104 42.6022 0.33252C42.6782 0.408691 42.7185 0.50293 42.7185 0.601807L42.7185 10.8774L42.723 10.8774Z" fill="#CECECE" fill-opacity="1.000000" fill-rule="nonzero"/>
		<path id="Vector" d="M54.1032 13.4976C54.063 13.6904 53.9423 13.7891 53.7366 13.7891L51.7064 13.7891C51.5499 13.7891 51.4426 13.7488 51.38 13.6636C51.3174 13.5781 51.295 13.4929 51.3218 13.4033L54.7829 0.502686C54.8232 0.30957 54.9439 0.210938 55.1496 0.210938L57.7387 0.210938C57.9444 0.210938 58.0652 0.30957 58.1054 0.502686L61.5442 13.3987C61.571 13.4885 61.5486 13.5781 61.486 13.6589C61.4234 13.7444 61.3116 13.7847 61.1596 13.7847L59.1294 13.7847C58.9506 13.7847 58.8254 13.686 58.7628 13.4929L58.1636 11.4961C58.1367 11.4199 58.1054 11.3525 58.0652 11.2942C58.0249 11.2358 57.9623 11.209 57.8729 11.209L54.935 11.209C54.7785 11.209 54.6846 11.3076 54.6443 11.5007L54.1032 13.4976ZM55.3777 8.28345C55.3374 8.427 55.3911 8.49438 55.5342 8.49438L57.3139 8.49438C57.457 8.49438 57.5062 8.42236 57.4704 8.28345L56.5448 3.63013C56.5314 3.58081 56.5001 3.55396 56.4464 3.55396L56.4062 3.55396C56.3525 3.55396 56.3212 3.58081 56.3078 3.63013L55.3821 8.28345L55.3777 8.28345Z" fill="#CECECE" fill-opacity="1.000000" fill-rule="nonzero"/>
		<path id="Vector" d="M72.6962 6.6145C72.5666 6.74463 72.5666 6.86133 72.6962 6.9646C72.8527 7.10815 73.0003 7.27417 73.1389 7.46704C73.282 7.66016 73.4028 7.87549 73.5056 8.10889C73.6085 8.34204 73.6889 8.58887 73.7471 8.84473C73.8052 9.10034 73.832 9.3562 73.832 9.59863C73.832 10.2312 73.7381 10.8057 73.5503 11.3262C73.3625 11.842 73.0942 12.2817 72.7499 12.6453C72.4056 13.0088 71.9852 13.2869 71.4933 13.489C71.0015 13.6909 70.4604 13.7896 69.8701 13.7896L65.309 13.7896C65.2061 13.7896 65.1167 13.7493 65.0362 13.6729C64.9602 13.5967 64.9199 13.5068 64.9199 13.4036L64.9199 0.601807C64.9199 0.498535 64.9602 0.408691 65.0362 0.33252C65.1122 0.256104 65.2016 0.21582 65.309 0.21582L69.8701 0.21582C70.4112 0.21582 70.912 0.319092 71.3771 0.525391C71.8421 0.731934 72.2446 1.01465 72.5844 1.36914C72.9243 1.72363 73.1926 2.14526 73.3849 2.62988C73.5772 3.1145 73.6755 3.62598 73.6755 4.16895C73.6755 4.59521 73.5816 5.03955 73.3938 5.49731C73.206 5.95483 72.9735 6.32739 72.6873 6.61011L72.6962 6.6145ZM67.7684 2.93066C67.6387 2.93066 67.5761 2.99341 67.5761 3.12354L67.5761 5.23706C67.5761 5.36719 67.6387 5.42993 67.7684 5.42993L69.7762 5.42993C70.1116 5.42993 70.4067 5.3042 70.6661 5.05298C70.9254 4.80176 71.0506 4.50562 71.0506 4.16895C71.0506 3.83252 70.921 3.54077 70.6661 3.29858C70.4067 3.05176 70.1116 2.93066 69.7762 2.93066L67.7684 2.93066ZM69.7762 11.0747C70.1876 11.0747 70.5185 10.9268 70.76 10.6306C71.0059 10.3345 71.1267 9.98901 71.1267 9.60303C71.1267 9.21704 71.0059 8.89404 70.76 8.59326C70.514 8.29712 70.1876 8.14917 69.7762 8.14917L67.7684 8.14917C67.6387 8.14917 67.5761 8.21191 67.5761 8.34204L67.5761 10.8818C67.5761 11.012 67.6387 11.0747 67.7684 11.0747L69.7762 11.0747Z" fill="#CECECE" fill-opacity="1.000000" fill-rule="nonzero"/>
		<path id="Vector" d="M79.9996 13.4978C79.9594 13.6909 79.8386 13.7896 79.6329 13.7896L77.6028 13.7896C77.4463 13.7896 77.3389 13.7493 77.2763 13.6638C77.2137 13.5786 77.1914 13.4934 77.2182 13.4036L80.6793 0.507568C80.7195 0.314453 80.8403 0.21582 81.046 0.21582L83.6351 0.21582C83.8408 0.21582 83.9615 0.314453 84.0018 0.507568L87.4405 13.4036C87.4674 13.4934 87.445 13.583 87.3824 13.6638C87.3198 13.7493 87.208 13.7896 87.056 13.7896L85.0258 13.7896C84.8469 13.7896 84.7217 13.6909 84.6591 13.4978L84.0599 11.501C84.0331 11.4248 84.0018 11.3574 83.9615 11.2991C83.9213 11.2407 83.8587 11.2139 83.7693 11.2139L80.8313 11.2139C80.6748 11.2139 80.5809 11.3125 80.5407 11.5056L79.9996 13.5024L79.9996 13.4978ZM81.274 8.28369C81.2338 8.42725 81.2875 8.49463 81.4306 8.49463L83.2103 8.49463C83.3534 8.49463 83.4026 8.42285 83.3668 8.28369L82.4412 3.63062C82.4277 3.5813 82.3964 3.5542 82.3428 3.5542L82.3025 3.5542C82.2489 3.5542 82.2176 3.5813 82.2042 3.63062L81.2785 8.28369L81.274 8.28369Z" fill="#CECECE" fill-opacity="1.000000" fill-rule="nonzero"/>
		<path id="Vector" d="M99.6291 13.3992C99.6291 13.5024 99.5889 13.592 99.5128 13.6685C99.4368 13.7446 99.3429 13.7852 99.2401 13.7852L96.9595 13.7852C96.7896 13.7852 96.6688 13.7493 96.5928 13.6772C96.5168 13.6055 96.4632 13.5337 96.4363 13.4529L93.8069 6.646C93.7801 6.58301 93.7443 6.55615 93.6996 6.56958C93.6549 6.58301 93.6326 6.61914 93.6326 6.68628L93.6326 13.3948C93.6326 13.4978 93.5923 13.5876 93.5163 13.6638C93.4403 13.7402 93.3508 13.7805 93.248 13.7805L91.3162 13.7805C91.2134 13.7805 91.1239 13.7402 91.0479 13.6638C90.9719 13.5876 90.9316 13.4978 90.9316 13.3948L90.9316 0.601807C90.9316 0.498535 90.9719 0.408691 91.0479 0.33252C91.1239 0.256104 91.2134 0.21582 91.3162 0.21582L93.6147 0.21582C93.7578 0.21582 93.8651 0.251709 93.9411 0.323486C94.0171 0.395264 94.0708 0.476074 94.0976 0.565918L96.7449 7.93384C96.7717 7.99658 96.8075 8.02344 96.8522 8.01001C96.8969 7.99658 96.9193 7.96069 96.9193 7.89331L96.9193 0.601807C96.9193 0.498535 96.9595 0.408691 97.0355 0.33252C97.1115 0.256104 97.201 0.21582 97.3083 0.21582L99.2401 0.21582C99.3429 0.21582 99.4324 0.256104 99.5128 0.33252C99.5889 0.408691 99.6291 0.50293 99.6291 0.601807L99.6291 13.3992Z" fill="#CECECE" fill-opacity="1.000000" fill-rule="nonzero"/>
		<path id="Vector" d="M115.137 9.83179C115.137 9.72852 115.178 9.63867 115.254 9.5625C115.33 9.48608 115.419 9.4458 115.522 9.4458L116.045 9.4458C116.148 9.4458 116.237 9.48608 116.313 9.5625C116.389 9.63867 116.43 9.72852 116.43 9.83179L116.43 9.90796C116.43 10.5405 116.313 11.106 116.081 11.604C115.848 12.1023 115.535 12.5239 115.142 12.874C114.748 13.2239 114.292 13.4888 113.769 13.6682C113.246 13.8477 112.696 13.9375 112.119 13.9375C110.947 13.9375 109.977 13.5784 109.212 12.8606C108.448 12.1426 107.978 11.1553 107.813 9.90356C107.759 9.51758 107.723 9.06445 107.696 8.55737C107.67 8.04565 107.656 7.52515 107.656 6.98682C107.656 6.44824 107.67 5.92773 107.696 5.42529C107.723 4.92261 107.759 4.47388 107.813 4.08813C107.889 3.55859 108.036 3.05151 108.255 2.56689C108.475 2.08228 108.765 1.65161 109.123 1.27905C109.485 0.9021 109.91 0.605957 110.406 0.38623C110.903 0.16626 111.471 0.0585938 112.115 0.0585938C112.758 0.0585938 113.326 0.16626 113.863 0.38623C114.4 0.605957 114.851 0.9021 115.227 1.27002C115.602 1.63818 115.893 2.06885 116.108 2.55786C116.322 3.04712 116.425 3.55859 116.425 4.08813L116.425 4.16431C116.425 4.26758 116.385 4.35742 116.309 4.43799C116.233 4.5144 116.144 4.55469 116.041 4.55469L115.518 4.55469C115.415 4.55469 115.325 4.5144 115.249 4.43799C115.173 4.36182 115.133 4.26758 115.133 4.16431L115.133 4.08813C115.133 3.72461 115.061 3.37915 114.918 3.04248C114.775 2.70605 114.574 2.40991 114.31 2.14966C114.046 1.8894 113.729 1.68286 113.362 1.53027C112.995 1.37329 112.58 1.29712 112.115 1.29712C111.649 1.29712 111.247 1.37329 110.898 1.53027C110.549 1.6875 110.25 1.8938 109.999 2.15869C109.749 2.42334 109.548 2.72388 109.4 3.06055C109.253 3.39697 109.15 3.73804 109.101 4.08813C109.038 4.48755 108.989 4.94067 108.966 5.44312C108.94 5.9458 108.926 6.46631 108.926 6.99585C108.926 7.52515 108.94 8.04126 108.966 8.54834C108.993 9.05078 109.038 9.50415 109.101 9.90356C109.141 10.1863 109.221 10.4912 109.342 10.8145C109.463 11.1375 109.646 11.438 109.883 11.7163C110.12 11.9944 110.42 12.2278 110.782 12.4163C111.144 12.6047 111.587 12.699 112.115 12.699C112.642 12.699 113.076 12.6091 113.456 12.4297C113.836 12.2502 114.154 12.0215 114.404 11.7432C114.654 11.4651 114.838 11.1599 114.954 10.8323C115.07 10.5046 115.128 10.1951 115.128 9.91235L115.128 9.83618L115.137 9.83179Z" fill="#CECECE" fill-opacity="1.000000" fill-rule="nonzero"/>
		<path id="Vector" d="M123.911 13.4978C123.871 13.6909 123.75 13.7896 123.545 13.7896L123.062 13.7896C122.905 13.7896 122.798 13.7493 122.735 13.6638C122.673 13.5786 122.65 13.4934 122.677 13.4036L126.366 0.507568C126.407 0.314453 126.527 0.21582 126.733 0.21582L127.699 0.21582C127.905 0.21582 128.025 0.314453 128.066 0.507568L131.755 13.4036C131.782 13.4934 131.759 13.583 131.697 13.6638C131.634 13.7493 131.522 13.7896 131.37 13.7896L130.887 13.7896C130.682 13.7896 130.561 13.6909 130.521 13.4978L129.573 10.2222C129.51 10.0427 129.385 9.95288 129.206 9.95288L125.226 9.95288C125.047 9.95288 124.922 10.0427 124.859 10.2222L123.911 13.4978ZM125.36 8.53516C125.32 8.67871 125.374 8.74585 125.517 8.74585L128.92 8.74585C129.063 8.74585 129.112 8.67407 129.076 8.53516L127.319 1.94336C127.292 1.86719 127.265 1.82666 127.243 1.82666L127.203 1.82666C127.162 1.82666 127.14 1.86719 127.127 1.94336L125.369 8.53516L125.36 8.53516Z" fill="#CECECE" fill-opacity="1.000000" fill-rule="nonzero"/>
		<path id="Vector" d="M139.951 13.3992C139.951 13.5024 139.911 13.592 139.835 13.6685C139.759 13.7446 139.669 13.7852 139.566 13.7852L139.101 13.7852C138.999 13.7852 138.909 13.7446 138.833 13.6685C138.757 13.592 138.717 13.5024 138.717 13.3992L138.717 0.601807C138.717 0.498535 138.757 0.408691 138.833 0.33252C138.909 0.256104 138.999 0.21582 139.101 0.21582L142.388 0.21582C142.943 0.21582 143.466 0.323486 143.962 0.534424C144.458 0.749756 144.888 1.03687 145.259 1.40503C145.626 1.77295 145.916 2.20801 146.126 2.7063C146.341 3.20435 146.444 3.72925 146.444 4.28564C146.444 4.84204 146.337 5.38501 146.126 5.87427C145.912 6.36768 145.626 6.79395 145.259 7.16187C144.892 7.53003 144.458 7.82153 143.962 8.03247C143.466 8.24341 142.943 8.35107 142.388 8.35107L140.148 8.35107C140.018 8.35107 139.955 8.41382 139.955 8.54395L139.955 13.3901L139.951 13.3992ZM140.143 1.45435C140.014 1.45435 139.951 1.52148 139.951 1.64722L139.951 6.92407C139.951 7.0542 140.014 7.11719 140.143 7.11719L142.384 7.11719C142.768 7.11719 143.135 7.04077 143.475 6.89282C143.815 6.74463 144.114 6.54272 144.374 6.28247C144.633 6.02222 144.834 5.72168 144.982 5.38062C145.129 5.03955 145.205 4.67163 145.205 4.28564C145.205 3.8999 145.129 3.53174 144.982 3.19092C144.834 2.84985 144.628 2.54907 144.374 2.28882C144.114 2.02856 143.815 1.82666 143.475 1.67871C143.135 1.53052 142.768 1.45435 142.384 1.45435L140.143 1.45435Z" fill="#CECECE" fill-opacity="1.000000" fill-rule="nonzero"/>
		<path id="Vector" d="M156.917 1.57104C156.917 1.44092 156.854 1.37793 156.725 1.37793L154.31 1.37793C154.207 1.37793 154.118 1.33765 154.042 1.26123C153.966 1.18506 153.925 1.09521 153.925 0.992188L153.925 0.601807C153.925 0.498535 153.966 0.408691 154.042 0.33252C154.118 0.256104 154.207 0.21582 154.31 0.21582L160.785 0.21582C160.888 0.21582 160.977 0.256104 161.053 0.33252C161.129 0.408691 161.169 0.50293 161.169 0.601807L161.169 0.992188C161.169 1.09521 161.129 1.18506 161.053 1.26123C160.977 1.33765 160.888 1.37793 160.785 1.37793L158.37 1.37793C158.24 1.37793 158.178 1.44092 158.178 1.57104L158.178 12.4119C158.178 12.542 158.24 12.605 158.37 12.605L160.977 12.605C161.08 12.605 161.169 12.6453 161.245 12.7217C161.321 12.7979 161.362 12.8921 161.362 12.9954L161.362 13.4036C161.362 13.5068 161.321 13.5967 161.245 13.6729C161.169 13.7493 161.08 13.7896 160.977 13.7896L154.118 13.7896C154.015 13.7896 153.925 13.7493 153.845 13.6729C153.769 13.5967 153.729 13.5068 153.729 13.4036L153.729 12.9954C153.729 12.8921 153.769 12.8022 153.845 12.7217C153.921 12.6453 154.01 12.605 154.118 12.605L156.725 12.605C156.854 12.605 156.917 12.542 156.917 12.4119L156.917 1.57104Z" fill="#CECECE" fill-opacity="1.000000" fill-rule="nonzero"/>
		<path id="Vector" d="M168.681 1.45435C168.579 1.45435 168.489 1.41382 168.413 1.33765C168.337 1.26123 168.297 1.17163 168.297 1.06836L168.297 0.601807C168.297 0.498535 168.337 0.408691 168.413 0.33252C168.489 0.256104 168.579 0.21582 168.681 0.21582L176.798 0.21582C176.9 0.21582 176.99 0.256104 177.066 0.33252C177.142 0.408691 177.182 0.50293 177.182 0.601807L177.182 1.06836C177.182 1.17163 177.142 1.26123 177.066 1.33765C176.99 1.41382 176.9 1.45435 176.798 1.45435L173.569 1.45435C173.439 1.45435 173.377 1.52148 173.377 1.64722L173.377 13.3992C173.377 13.5024 173.336 13.592 173.26 13.6685C173.184 13.7446 173.091 13.7852 172.988 13.7852L172.505 13.7852C172.402 13.7852 172.312 13.7446 172.236 13.6685C172.16 13.592 172.12 13.5024 172.12 13.3992L172.12 1.64722C172.12 1.51709 172.058 1.45435 171.928 1.45435L168.681 1.45435Z" fill="#CECECE" fill-opacity="1.000000" fill-rule="nonzero"/>
		<path id="Vector" d="M184.587 13.4978C184.547 13.6909 184.426 13.7896 184.22 13.7896L183.738 13.7896C183.581 13.7896 183.474 13.7493 183.411 13.6638C183.348 13.5786 183.326 13.4934 183.353 13.4036L187.042 0.507568C187.082 0.314453 187.203 0.21582 187.409 0.21582L188.375 0.21582C188.58 0.21582 188.701 0.314453 188.741 0.507568L192.431 13.4036C192.457 13.4934 192.435 13.583 192.372 13.6638C192.31 13.7493 192.198 13.7896 192.046 13.7896L191.563 13.7896C191.357 13.7896 191.237 13.6909 191.196 13.4978L190.248 10.2222C190.186 10.0427 190.061 9.95288 189.882 9.95288L185.902 9.95288C185.723 9.95288 185.598 10.0427 185.535 10.2222L184.587 13.4978ZM186.036 8.53516C185.996 8.67871 186.049 8.74585 186.193 8.74585L189.595 8.74585C189.739 8.74585 189.788 8.67407 189.752 8.53516L187.995 1.94336C187.968 1.86719 187.941 1.82666 187.919 1.82666L187.878 1.82666C187.838 1.82666 187.816 1.86719 187.802 1.94336L186.045 8.53516L186.036 8.53516Z" fill="#CECECE" fill-opacity="1.000000" fill-rule="nonzero"/>
		<path id="Vector" d="M201.303 12.3538C201.303 12.4839 201.365 12.5466 201.495 12.5466L206.615 12.5466C206.718 12.5466 206.807 12.5869 206.883 12.6633C206.959 12.7395 207 12.8337 207 12.9324L207 13.3992C207 13.5024 206.959 13.592 206.883 13.6685C206.807 13.7446 206.718 13.7852 206.615 13.7852L200.453 13.7852C200.35 13.7852 200.261 13.7446 200.185 13.6685C200.109 13.592 200.068 13.5024 200.068 13.3992L200.068 0.601807C200.068 0.498535 200.109 0.408691 200.185 0.33252C200.261 0.256104 200.35 0.21582 200.453 0.21582L200.918 0.21582C201.021 0.21582 201.11 0.256104 201.191 0.33252C201.267 0.408691 201.307 0.50293 201.307 0.601807L201.307 12.3538L201.303 12.3538Z" fill="#CECECE" fill-opacity="1.000000" fill-rule="nonzero"/>
	</g>
</svg>
