<svg width="495.000000" height="481.693604" viewBox="0 0 495 481.694" fill="none" xmlns="http://www.w3.org/2000/svg" xmlns:xlink="http://www.w3.org/1999/xlink">
	<desc>
			Created with Pixso.
	</desc>
	<defs/>
	<path id="Vector" d="M486.625 232.757L103.528 232.757C107.881 159.61 170.404 101.39 246.609 101.39C302.29 101.39 353.411 133.183 376.795 182.365C378.744 186.44 383.719 188.215 387.907 186.319C392.094 184.423 393.919 179.581 391.97 175.506C365.85 120.595 308.8 85.0903 246.609 85.0903C161.158 85.0903 91.0893 150.612 86.7359 232.717L16.8331 232.717C21.2279 112.647 123.014 16.2598 247.479 16.2598C350.924 16.2598 442.386 83.9199 469.958 180.832C471.202 185.149 475.804 187.691 480.24 186.521C484.676 185.31 487.288 180.832 486.086 176.515C456.566 72.583 358.428 0 247.521 0C111.032 0 0 108.047 0 240.867C0 245.345 3.73149 249.017 8.37509 249.017L86.7774 249.017C91.1307 331.162 161.158 396.644 246.65 396.644C308.841 396.644 365.891 361.139 392.011 306.228C393.96 302.153 392.136 297.311 387.948 295.415C383.761 293.519 378.786 295.294 376.837 299.369C353.453 348.551 302.332 380.344 246.65 380.344C170.404 380.344 107.881 322.124 103.569 248.977L478.167 248.977C473.772 369.047 371.986 465.434 247.521 465.434C144.076 465.434 52.6137 397.773 25.0423 300.862C23.7985 296.545 19.1963 294.003 14.76 295.173C10.3237 296.383 7.7117 300.862 8.91406 305.179C38.4341 409.111 136.572 481.694 247.479 481.694C383.968 481.694 495 373.646 495 240.827C495 236.348 491.269 232.677 486.625 232.677L486.625 232.757Z" fill="#EEFF12" fill-opacity="1.000000" fill-rule="nonzero"/>
</svg>
