<svg width="110" height="26" viewBox="0 0 110 26" fill="none" xmlns="http://www.w3.org/2000/svg">
<path d="M0.515625 25.3301H25.0035V0.842285H0.515625V25.3301ZM20.2902 10.73H15.1157V5.55559H20.2902V10.73ZM5.22798 5.55559H10.4053V15.4424H20.2902V20.6168H5.22798V5.55559ZM40.9497 0.842285C38.528 0.842285 36.1608 1.56038 34.1473 2.90576C32.1338 4.25114 30.5645 6.16338 29.6377 8.40067C28.711 10.638 28.4686 13.0998 28.941 15.4748C29.4135 17.8499 30.5795 20.0316 32.2919 21.7439C34.0042 23.4563 36.1859 24.6224 38.5609 25.0949C40.9361 25.5673 43.3979 25.3249 45.6352 24.3981C47.8725 23.4714 49.7847 21.9021 51.1301 19.8886C52.4755 17.875 53.1936 15.5078 53.1936 13.0862C53.1898 9.84006 51.8985 6.72799 49.6032 4.43264C47.3078 2.13728 44.1958 0.846075 40.9497 0.842285ZM40.9497 20.6168C39.4603 20.6168 38.0043 20.1752 36.7658 19.3476C35.5275 18.5202 34.5622 17.3441 33.9923 15.968C33.4223 14.592 33.2732 13.0779 33.5637 11.617C33.8543 10.1562 34.5716 8.81443 35.6247 7.76126C36.6779 6.70809 38.0197 5.99087 39.4805 5.7003C40.9413 5.40973 42.4554 5.55886 43.8315 6.12883C45.2075 6.6988 46.3837 7.66402 47.2111 8.90245C48.0386 10.1408 48.4803 11.5968 48.4803 13.0862C48.4772 15.0826 47.6828 16.9962 46.2712 18.4078C44.8596 19.8194 42.9459 20.6137 40.9497 20.6168ZM97.0082 0.842285C94.5861 0.842104 92.2192 1.56003 90.2055 2.9053C88.1919 4.25056 86.6225 6.16273 85.6956 8.4C84.7687 10.6372 84.5261 13.0992 84.9984 15.4743C85.4707 17.8494 86.6368 20.0312 88.3491 21.7436C90.0614 23.4561 92.243 24.6223 94.6186 25.0948C96.9929 25.5673 99.455 25.3249 101.693 24.3982C103.93 23.4715 105.842 21.9022 107.187 19.8887C108.533 17.8751 109.251 15.5079 109.251 13.0862C109.247 9.84025 107.957 6.7283 105.661 4.43297C103.366 2.13764 100.254 0.846333 97.0082 0.842285ZM97.0082 20.6168C95.5189 20.617 94.063 20.1754 92.8241 19.3481C91.5856 18.5208 90.6202 17.3447 90.0501 15.9687C89.48 14.5927 89.3307 13.0785 89.6212 11.6176C89.9117 10.1568 90.6288 8.81491 91.682 7.7616C92.7351 6.70833 94.0773 5.99101 95.5379 5.70036C96.9986 5.40972 98.5128 5.55879 99.8885 6.12874C101.265 6.69868 102.441 7.6639 103.269 8.90236C104.096 10.1408 104.538 11.5968 104.538 13.0862C104.535 15.0824 103.741 16.9958 102.329 18.4075C100.918 19.8191 99.0044 20.6136 97.0082 20.6168ZM68.9784 0.842285C66.5568 0.842285 64.1895 1.56038 62.1761 2.90576C60.1625 4.25114 58.5932 6.16338 57.6665 8.40067C56.7398 10.638 56.4974 13.0998 56.9698 15.4748C57.4422 17.8499 58.6083 20.0316 60.3206 21.7439C62.033 23.4563 64.2146 24.6224 66.5897 25.0949C68.9648 25.5673 71.4267 25.3249 73.664 24.3981C75.9013 23.4714 77.8134 21.9021 79.1589 19.8886C80.5042 17.875 81.2224 15.5078 81.2224 13.0862C81.2185 9.84006 79.9273 6.72799 77.632 4.43264C75.3366 2.13728 72.2246 0.846075 68.9784 0.842285ZM68.9784 20.6168C67.5907 20.6175 66.2299 20.2347 65.046 19.5108C63.8622 18.7868 62.9013 17.75 62.2695 16.5144C61.6379 15.2788 61.3598 13.8927 61.4662 12.5092C61.5725 11.1255 62.059 9.79824 62.8721 8.67371C63.6853 7.54924 64.7933 6.67126 66.0738 6.13672C67.3544 5.60218 68.7578 5.43189 70.129 5.64461C71.5004 5.85734 72.7861 6.44482 73.8446 7.34222C74.9031 8.23961 75.693 9.41207 76.1272 10.73H68.9784V15.4424H76.1272C75.6299 16.9463 74.6717 18.2556 73.3885 19.1843C72.1054 20.1131 70.5625 20.6142 68.9784 20.6168Z" fill="#EEEFE1"/>
</svg>
