<svg width="186" height="188" viewBox="0 0 186 188" fill="none" xmlns="http://www.w3.org/2000/svg">
<rect width="186" height="188" rx="2" fill="#EEEFE1" fill-opacity="0.1"/>
<path d="M51.7491 78.0232C49.5552 78.0232 47.3826 78.4554 45.3556 79.2949C43.3286 80.1346 41.4869 81.3652 39.9354 82.9166C38.384 84.468 37.1534 86.3097 36.3138 88.3367C35.4742 90.3637 35.0421 92.5363 35.0421 94.7303C35.0421 96.9243 35.4742 99.0969 36.3138 101.124C37.1534 103.151 38.384 104.993 39.9354 106.544C41.4869 108.095 43.3286 109.326 45.3556 110.166C47.3826 111.005 49.5552 111.437 51.7491 111.437V103.084C50.6521 103.084 49.5659 102.868 48.5524 102.448C47.5389 102.028 46.618 101.413 45.8423 100.637C45.0666 99.8615 44.4513 98.9406 44.0315 97.9271C43.6116 96.9136 43.3956 95.8273 43.3956 94.7303C43.3956 93.6333 43.6116 92.547 44.0315 91.5335C44.4513 90.52 45.0666 89.5991 45.8423 88.8234C46.618 88.0477 47.5389 87.4324 48.5524 87.0127C49.5659 86.5928 50.6521 86.3767 51.7491 86.3767V78.0232Z" fill="#EEEFE1"/>
<path d="M51.7487 100.299C54.8244 100.299 57.3177 97.8061 57.3177 94.7304C57.3177 91.6546 54.8244 89.1614 51.7487 89.1614C48.673 89.1614 46.1797 91.6546 46.1797 94.7304C46.1797 97.8061 48.673 100.299 51.7487 100.299Z" fill="#EEEFE1"/>
<path d="M35.0421 94.7301C35.0421 96.9241 35.4742 99.0967 36.3138 101.124C37.1534 103.151 38.384 104.992 39.9354 106.544C41.4869 108.095 43.3286 109.326 45.3556 110.165C47.3826 111.005 49.5552 111.437 51.7491 111.437C53.9431 111.437 56.1157 111.005 58.1427 110.165C60.1697 109.326 62.0114 108.095 63.5629 106.544C65.1142 104.992 66.3448 103.151 67.1845 101.124C68.024 99.0967 68.4562 96.9241 68.4562 94.7301H60.1027C60.1027 95.8271 59.8866 96.9134 59.4668 97.9269C59.047 98.9404 58.4317 99.8613 57.656 100.637C56.8803 101.413 55.9594 102.028 54.9459 102.448C53.9324 102.868 52.8462 103.084 51.7491 103.084C50.6521 103.084 49.5659 102.868 48.5524 102.448C47.5389 102.028 46.618 101.413 45.8423 100.637C45.0666 99.8613 44.4513 98.9404 44.0315 97.9269C43.6116 96.9134 43.3956 95.8271 43.3956 94.7301H35.0421Z" fill="#EEEFE1"/>
<path d="M57.3178 94.7302C57.3178 93.2532 56.731 91.8367 55.6867 90.7923C54.6423 89.7479 53.2258 89.1611 51.7488 89.1611C50.2718 89.1611 48.8553 89.7479 47.8109 90.7923C46.7664 91.8367 46.1797 93.2532 46.1797 94.7302H51.7488H57.3178Z" fill="#EEEFE1"/>
<path d="M77.1825 88.4532H75.1075V99.9811H77.1825V88.4532Z" fill="#EEEFE1"/>
<path d="M78.5366 95.8968C78.5366 98.5646 80.3811 100.211 82.8184 100.211C85.2557 100.211 87.1002 98.5646 87.1002 95.8968C87.1002 93.2289 85.2557 91.582 82.8184 91.582C80.3811 91.582 78.5366 93.2289 78.5366 95.8968ZM80.6116 95.8968C80.6116 94.3158 81.5339 93.3936 82.8184 93.3936C84.1029 93.3936 85.0252 94.3158 85.0252 95.8968C85.0252 97.4777 84.1029 98.4 82.8184 98.4C81.5339 98.4 80.6116 97.4777 80.6116 95.8968Z" fill="#EEEFE1"/>
<path d="M94.5146 91.8126V92.9159H94.3499C93.8559 92.2078 93.0654 91.582 91.6491 91.582C89.7058 91.582 87.9602 93.2289 87.9602 95.765C87.9602 98.3011 89.7058 99.948 91.6491 99.948C93.0654 99.948 93.8559 99.3057 94.317 98.6635H94.4817V99.4539C94.4817 101.035 93.5594 101.76 92.209 101.76C90.8586 101.76 90.1669 101.035 89.8869 100.096L88.026 100.903C88.4542 102.138 89.7058 103.505 92.242 103.505C94.844 103.505 96.5567 102.138 96.5567 99.5033V91.8126H94.5146ZM92.2749 98.1694C90.9904 98.1694 90.0352 97.2472 90.0352 95.765C90.0352 94.2829 90.9904 93.3606 92.2749 93.3606C93.5594 93.3606 94.5146 94.2829 94.5146 95.765C94.5146 97.2472 93.5594 98.1694 92.2749 98.1694Z" fill="#EEEFE1"/>
<path d="M97.9005 95.8968C97.9005 98.5646 99.7449 100.211 102.182 100.211C104.62 100.211 106.464 98.5646 106.464 95.8968C106.464 93.2289 104.62 91.582 102.182 91.582C99.7449 91.582 97.9005 93.2289 97.9005 95.8968ZM99.9755 95.8968C99.9755 94.3158 100.898 93.3936 102.182 93.3936C103.467 93.3936 104.389 94.3158 104.389 95.8968C104.389 97.4777 103.467 98.4 102.182 98.4C100.898 98.4 99.9755 97.4777 99.9755 95.8968Z" fill="#EEEFE1"/>
<path d="M108.093 89.4416C108.093 90.2815 108.735 90.8578 109.559 90.8578C110.382 90.8578 111.024 90.2815 111.024 89.4416C111.024 88.6017 110.382 88.0253 109.559 88.0253C108.735 88.0253 108.093 88.6017 108.093 89.4416ZM110.596 91.813H108.521V99.9813H110.596V91.813Z" fill="#EEEFE1"/>
<path d="M112.445 103.275H114.52V98.9269H114.685C115.146 99.5857 115.936 100.211 117.353 100.211C119.296 100.211 121.042 98.5646 121.042 95.8968C121.042 93.2289 119.296 91.582 117.353 91.582C115.936 91.582 115.146 92.2078 114.652 92.916H114.487V91.8126H112.445V103.275ZM116.727 98.4329C115.443 98.4329 114.487 97.5107 114.487 95.8968C114.487 94.2829 115.443 93.3606 116.727 93.3606C118.012 93.3606 118.966 94.2829 118.966 95.8968C118.966 97.5107 118.012 98.4329 116.727 98.4329Z" fill="#EEEFE1"/>
<path d="M122.252 94.1017C122.252 95.7157 123.602 96.3085 125.314 96.6379L125.743 96.7202C126.764 96.9178 127.225 97.1649 127.225 97.6919C127.225 98.2189 126.764 98.6305 125.809 98.6305C124.853 98.6305 124.08 98.2353 123.865 97.0495L121.955 97.5436C122.235 99.2563 123.667 100.211 125.809 100.211C127.883 100.211 129.234 99.2399 129.234 97.5272C129.234 95.8144 127.851 95.3533 126.006 94.991L125.578 94.9087C124.721 94.744 124.26 94.5134 124.26 93.97C124.26 93.4759 124.689 93.163 125.479 93.163C126.27 93.163 126.829 93.4924 127.027 94.3817L128.905 93.8053C128.51 92.4878 127.308 91.582 125.479 91.582C123.536 91.582 122.252 92.4878 122.252 94.1017Z" fill="#EEEFE1"/>
<path d="M138.556 99.9812V91.8129H136.481V96.0288C136.481 97.5439 135.741 98.4332 134.472 98.4332C133.352 98.4332 132.727 97.8239 132.727 96.5887V91.8129H130.651V96.6875C130.651 98.7132 131.92 100.113 133.83 100.113C135.328 100.113 136.02 99.4542 136.35 98.7625H136.514V99.9812H138.556Z" fill="#EEEFE1"/>
<path d="M140.396 91.8128V99.9811H142.471V95.1065C142.471 93.9866 142.998 93.3608 143.953 93.3608C144.777 93.3608 145.27 93.8219 145.27 94.7112V99.9811H147.346V95.1065C147.346 93.9866 147.873 93.3608 148.827 93.3608C149.651 93.3608 150.145 93.8219 150.145 94.7112V99.9811H152.22V94.6124C152.22 92.6362 151.001 91.681 149.486 91.681C148.152 91.681 147.543 92.2739 147.148 92.9656H146.983C146.604 92.1916 145.929 91.681 144.743 91.681C143.558 91.681 142.915 92.208 142.603 92.8338H142.438V91.8128H140.396Z" fill="#EEEFE1"/>
</svg>
