<svg width="122" height="30" viewBox="0 0 122 30" fill="none" xmlns="http://www.w3.org/2000/svg">
<path d="M35.3431 9.55426H38.4077V21.9652H35.3431V9.55426ZM39.6297 17.2968C39.6297 14.2227 41.5391 12.3801 44.4032 12.3801C47.2672 12.3801 49.1766 14.2227 49.1766 17.2968C49.1766 20.3709 47.3341 22.2326 44.4032 22.2326C41.4723 22.2326 39.6297 20.4377 39.6297 17.2968ZM46.1407 17.2968C46.1407 15.607 45.482 14.6141 44.4318 14.6141C43.3816 14.6141 42.7325 15.5688 42.7325 17.2968C42.7325 19.0248 43.3816 19.9699 44.4318 19.9699C45.482 19.9699 46.1598 19.0248 46.1598 17.3063L46.1407 17.2968ZM50.3986 22.6049H53.3582C53.4929 22.9235 53.7282 23.1893 54.0282 23.3617C54.3281 23.5341 54.6762 23.6036 55.0193 23.5596C56.1936 23.5596 56.8046 22.9295 56.8046 21.9939V20.2754H56.8141C56.5612 20.8105 56.1523 21.2565 55.6411 21.5547C55.1299 21.853 54.5404 21.9894 53.9501 21.9461C51.7065 21.9461 50.2172 20.2372 50.2172 17.2968C50.2172 14.3564 51.6397 12.5233 54.036 12.5233C54.6414 12.491 55.242 12.6471 55.7548 12.9702C56.2678 13.2934 56.6679 13.7677 56.9001 14.3277H56.8141V12.5997H59.8501V21.8984C59.8501 24.1419 57.8643 25.5453 54.9429 25.5453C52.2889 25.5358 50.5896 24.3233 50.4177 22.6144L50.3986 22.6049ZM56.8141 17.2968C56.8141 15.7979 56.1268 14.8528 55.0384 14.8528C53.9501 14.8528 53.2818 15.8075 53.2818 17.2968C53.2818 18.7861 53.9405 19.6644 55.0384 19.6644C56.1363 19.6644 56.8141 18.8529 56.8141 17.2968ZM61.0625 17.2968C61.0625 14.2227 62.9719 12.3801 65.836 12.3801C68.7 12.3801 70.6094 14.2227 70.6094 17.2968C70.6094 20.3709 68.7573 22.2326 65.836 22.2326C62.9146 22.2326 61.0816 20.4377 61.0816 17.2968H61.0625ZM67.5735 17.2968C67.5735 15.607 66.9052 14.6141 65.8646 14.6141C64.824 14.6141 64.1653 15.5688 64.1653 17.2968C64.1653 19.0248 64.8145 19.9699 65.8646 19.9699C66.9148 19.9699 67.5926 19.0248 67.5926 17.3063L67.5735 17.2968ZM71.8505 10.3371C71.8372 10.0249 71.9175 9.71588 72.0813 9.44981C72.245 9.18364 72.4846 8.97266 72.7693 8.84387C73.054 8.71499 73.3707 8.67432 73.6787 8.72702C73.9866 8.77962 74.2718 8.9232 74.4975 9.13925C74.7232 9.35539 74.8791 9.63397 74.9452 9.93938C75.0111 10.2448 74.9843 10.563 74.868 10.8529C74.7517 11.143 74.5513 11.3916 74.2926 11.5667C74.0339 11.7419 73.7287 11.8357 73.4162 11.836C73.2166 11.841 73.0178 11.8064 72.8317 11.7341C72.6455 11.6617 72.4755 11.5531 72.3316 11.4146C72.1877 11.276 72.0728 11.1103 71.9935 10.9269C71.9142 10.7436 71.8721 10.5464 71.8696 10.3466L71.8505 10.3371ZM71.8505 12.5902H74.9533V22.0034H71.8983L71.8505 12.5902ZM86.1136 17.2968C86.1136 20.3614 84.7389 22.1371 82.3999 22.1371C81.8011 22.174 81.2054 22.0262 80.6932 21.7139C80.181 21.4014 79.777 20.9393 79.5358 20.39H79.4785V25.0298H76.4139V12.6188H79.4594V14.2991H79.5167C79.7496 13.739 80.1497 13.2642 80.6621 12.9396C81.1747 12.615 81.7748 12.4563 82.3808 12.4852C84.7866 12.4661 86.1709 14.2322 86.1709 17.3063L86.1136 17.2968ZM82.9918 17.2968C82.9918 15.8075 82.2948 14.8432 81.216 14.8432C80.1372 14.8432 79.4594 15.7979 79.4499 17.2968C79.4403 18.7957 80.1372 19.7408 81.216 19.7408C82.2948 19.7408 83.0491 18.8529 83.0491 17.3063L82.9918 17.2968ZM91.3453 12.3706C93.9134 12.3706 95.5078 13.5831 95.5269 15.5306H92.7296C92.7296 14.8528 92.1664 14.4327 91.3262 14.4327C90.4861 14.4327 90.0851 14.7573 90.0851 15.2442C90.0851 15.7311 90.4384 15.8839 91.1448 16.0271L93.1115 16.428C95.0209 16.829 95.7846 17.5928 95.7846 19.0152C95.7846 20.9246 94.0185 22.223 91.3931 22.223C88.7677 22.223 87.0588 20.9628 86.9347 19.0439H89.9037C89.9897 19.7408 90.5434 20.1513 91.4408 20.1513C92.3382 20.1513 92.7583 19.8649 92.7583 19.3589C92.7583 18.8529 92.4719 18.767 91.7367 18.6143L89.961 18.2419C88.1185 17.8505 87.1542 16.8863 87.1542 15.4447C87.2115 13.5735 88.8154 12.3801 91.4026 12.3801L91.3453 12.3706ZM106.048 21.9939H103.078V20.2277H103.021C102.855 20.8168 102.493 21.3317 101.995 21.6874C101.497 22.0432 100.892 22.2186 100.281 22.1848C99.8201 22.1998 99.3599 22.1171 98.9332 21.942C98.5065 21.767 98.1208 21.5036 97.8028 21.1692C97.484 20.8347 97.2405 20.4367 97.0868 20.0013C96.9331 19.566 96.873 19.103 96.9112 18.6429V12.5997H99.9757V17.9842C99.9757 19.0916 100.558 19.6931 101.513 19.6931C101.737 19.6914 101.958 19.6416 102.161 19.5473C102.364 19.4529 102.545 19.316 102.69 19.1458C102.836 18.9757 102.944 18.7763 103.006 18.5611C103.067 18.3458 103.082 18.1198 103.05 17.8983V12.5997H106.105L106.048 21.9939ZM107.527 12.5902H110.506V14.4041H110.573C110.737 13.823 111.09 13.3129 111.575 12.9535C112.061 12.5943 112.652 12.406 113.255 12.4183C113.862 12.3656 114.466 12.5409 114.949 12.9099C115.433 13.2789 115.762 13.8151 115.871 14.4136H116.005C116.196 13.8119 116.58 13.2901 117.098 12.9293C117.616 12.5684 118.239 12.3888 118.869 12.4183C119.288 12.4024 119.706 12.4751 120.095 12.6318C120.484 12.7884 120.836 13.0254 121.127 13.3274C121.418 13.6293 121.641 13.9893 121.784 14.3838C121.927 14.7782 121.984 15.1983 121.953 15.6165V22.0034H118.869V16.3994C118.869 15.4447 118.42 14.9101 117.552 14.9101C117.359 14.9069 117.168 14.9455 116.991 15.023C116.815 15.1006 116.658 15.2155 116.53 15.3596C116.402 15.5039 116.307 15.6739 116.25 15.8584C116.195 16.0428 116.18 16.2371 116.205 16.428V22.0034H113.284V16.3707C113.284 15.4161 112.816 14.9101 111.976 14.9101C111.781 14.9085 111.589 14.9486 111.411 15.0277C111.232 15.1068 111.074 15.223 110.944 15.3686C110.815 15.5142 110.719 15.6858 110.662 15.8717C110.603 16.0578 110.586 16.254 110.611 16.4471V22.0034H107.546L107.527 12.5902Z" fill="#EEEFE1"/>
<path d="M29.281 10.3654C29.2811 8.4653 28.7074 6.60944 27.6349 5.04094C26.5624 3.47244 25.0411 2.26442 23.2704 1.57513C21.4997 0.885835 19.5621 0.747405 17.7114 1.17796C15.8607 1.60852 14.1832 2.58799 12.8985 3.98808H0.984009V29.1346H26.1401V17.3824C27.1274 16.4993 27.9175 15.4179 28.4588 14.2088C29 12.9997 29.2802 11.6902 29.281 10.3654ZM24.4408 10.3654C24.4427 11.2759 24.1744 12.1665 23.6699 12.9246C23.1654 13.6825 22.4475 14.2738 21.6067 14.6235C20.766 14.9733 19.8406 15.0658 18.9473 14.8893C18.0541 14.7129 17.2332 14.2754 16.5887 13.6322C15.9442 12.989 15.505 12.1691 15.3267 11.2762C15.1484 10.3834 15.239 9.45761 15.5869 8.61624C15.9349 7.77483 16.5247 7.05559 17.2816 6.54954C18.0386 6.04349 18.9286 5.77337 19.8391 5.77336C21.0579 5.77336 22.2269 6.25686 23.0896 7.11776C23.9523 7.97866 24.4383 9.14666 24.4408 10.3654ZM21.2998 24.2944H5.82429V8.82837H10.5404C10.4494 9.33579 10.4014 9.84998 10.3972 10.3654C10.3998 12.8688 11.3954 15.2689 13.1656 17.0391C14.9357 18.8092 17.3357 19.8048 19.8391 19.8073C20.3286 19.8047 20.817 19.7632 21.2998 19.6832V24.2944Z" fill="#EEEFE1"/>
</svg>
