<svg width="187" height="188" viewBox="0 0 187 188" fill="none" xmlns="http://www.w3.org/2000/svg">
<rect width="187" height="188" rx="2" fill="#EEEFE1" fill-opacity="0.1"/>
<path d="M39.5156 106.33H64.0035V81.8423H39.5156V106.33ZM59.2902 91.73H54.1157V86.5556H59.2902V91.73ZM44.228 86.5556H49.4053V96.4424H59.2902V101.617H44.228V86.5556ZM79.9497 81.8423C77.528 81.8423 75.1608 82.5604 73.1473 83.9058C71.1338 85.2511 69.5645 87.1634 68.6377 89.4007C67.711 91.638 67.4686 94.0998 67.941 96.4748C68.4135 98.8499 69.5795 101.032 71.2919 102.744C73.0042 104.456 75.1859 105.622 77.5609 106.095C79.9361 106.567 82.3979 106.325 84.6352 105.398C86.8725 104.471 88.7847 102.902 90.1301 100.889C91.4755 98.875 92.1936 96.5078 92.1936 94.0862C92.1898 90.8401 90.8985 87.728 88.6032 85.4326C86.3078 83.1373 83.1958 81.8461 79.9497 81.8423ZM79.9497 101.617C78.4603 101.617 77.0043 101.175 75.7658 100.348C74.5275 99.5202 73.5622 98.3441 72.9923 96.968C72.4223 95.592 72.2732 94.0779 72.5637 92.617C72.8543 91.1562 73.5716 89.8144 74.6247 88.7613C75.6779 87.7081 77.0197 86.9909 78.4805 86.7003C79.9413 86.4097 81.4554 86.5589 82.8315 87.1288C84.2075 87.6988 85.3837 88.664 86.2111 89.9025C87.0386 91.1408 87.4803 92.5968 87.4803 94.0862C87.4772 96.0826 86.6828 97.9962 85.2712 99.4078C83.8596 100.819 81.9459 101.614 79.9497 101.617ZM136.008 81.8423C133.586 81.8421 131.219 82.56 129.206 83.9053C127.192 85.2506 125.622 87.1627 124.696 89.4C123.769 91.6372 123.526 94.0992 123.998 96.4743C124.471 98.8494 125.637 101.031 127.349 102.744C129.061 104.456 131.243 105.622 133.619 106.095C135.993 106.567 138.455 106.325 140.693 105.398C142.93 104.472 144.842 102.902 146.187 100.889C147.533 98.8751 148.251 96.5079 148.251 94.0862C148.247 90.8402 146.957 87.7283 144.661 85.433C142.366 83.1376 139.254 81.8463 136.008 81.8423ZM136.008 101.617C134.519 101.617 133.063 101.175 131.824 100.348C130.586 99.5208 129.62 98.3447 129.05 96.9687C128.48 95.5927 128.331 94.0785 128.621 92.6176C128.912 91.1568 129.629 89.8149 130.682 88.7616C131.735 87.7083 133.077 86.991 134.538 86.7004C135.999 86.4097 137.513 86.5588 138.888 87.1287C140.265 87.6987 141.441 88.6639 142.269 89.9024C143.096 91.1408 143.538 92.5968 143.538 94.0862C143.535 96.0824 142.741 97.9958 141.329 99.4075C139.918 100.819 138.004 101.614 136.008 101.617ZM107.978 81.8423C105.557 81.8423 103.19 82.5604 101.176 83.9058C99.1625 85.2511 97.5932 87.1634 96.6665 89.4007C95.7398 91.638 95.4974 94.0998 95.9698 96.4748C96.4422 98.8499 97.6083 101.032 99.3206 102.744C101.033 104.456 103.215 105.622 105.59 106.095C107.965 106.567 110.427 106.325 112.664 105.398C114.901 104.471 116.813 102.902 118.159 100.889C119.504 98.875 120.222 96.5078 120.222 94.0862C120.219 90.8401 118.927 87.728 116.632 85.4326C114.337 83.1373 111.225 81.8461 107.978 81.8423ZM107.978 101.617C106.591 101.617 105.23 101.235 104.046 100.511C102.862 99.7868 101.901 98.75 101.27 97.5144C100.638 96.2788 100.36 94.8927 100.466 93.5092C100.573 92.1255 101.059 90.7982 101.872 89.6737C102.685 88.5492 103.793 87.6713 105.074 87.1367C106.354 86.6022 107.758 86.4319 109.129 86.6446C110.5 86.8573 111.786 87.4448 112.845 88.3422C113.903 89.2396 114.693 90.4121 115.127 91.73H107.978V96.4424H115.127C114.63 97.9463 113.672 99.2556 112.389 100.184C111.105 101.113 109.562 101.614 107.978 101.617Z" fill="#EEEFE1"/>
</svg>
