<svg width="187" height="188" viewBox="0 0 187 188" fill="none" xmlns="http://www.w3.org/2000/svg">
<rect width="187" height="188" rx="2" fill="#EEEFE1" fill-opacity="0.1"/>
<path d="M51.9618 122.967V108.574H49.6021V122.967H51.9618Z" fill="#EEEFE1"/>
<path d="M53.4061 118.169C53.4061 121.109 55.379 123.198 58.3769 123.198C61.3748 123.198 63.3477 121.109 63.3477 118.169C63.3477 115.228 61.3748 113.139 58.3769 113.139C55.379 113.139 53.4061 115.228 53.4061 118.169ZM55.7851 118.169C55.7851 116.447 56.8103 115.247 58.3769 115.247C59.9436 115.247 60.9687 116.447 60.9687 118.169C60.9687 119.871 59.9436 121.09 58.3769 121.09C56.8103 121.09 55.7851 119.871 55.7851 118.169Z" fill="#EEEFE1"/>
<path d="M64.1405 117.975C64.1405 120.761 65.9392 122.773 68.6277 122.773C70.0203 122.773 71.2195 122.212 71.8191 121.283V122.908C71.8191 124.475 70.8327 125.52 69.1886 125.52C67.7187 125.52 66.7129 124.804 66.5775 123.547H64.1985C64.5079 126.042 66.4228 127.667 69.0532 127.667C72.1479 127.667 74.1207 125.636 74.1207 122.483V113.41H72.0319L71.8965 114.706C71.3162 113.7 70.117 113.1 68.705 113.1C65.9779 113.1 64.1405 115.17 64.1405 117.975ZM66.5388 117.917C66.5388 116.331 67.5446 115.17 69.0339 115.17C70.6586 115.17 71.7417 116.35 71.7417 117.917C71.7417 119.503 70.6586 120.722 69.0339 120.722C67.5639 120.722 66.5388 119.523 66.5388 117.917Z" fill="#EEEFE1"/>
<path d="M75.2894 118.169C75.2894 121.109 77.2623 123.198 80.2602 123.198C83.2581 123.198 85.231 121.109 85.231 118.169C85.231 115.228 83.2581 113.139 80.2602 113.139C77.2623 113.139 75.2894 115.228 75.2894 118.169ZM77.6684 118.169C77.6684 116.447 78.6935 115.247 80.2602 115.247C81.8268 115.247 82.852 116.447 82.852 118.169C82.852 119.871 81.8268 121.09 80.2602 121.09C78.6935 121.09 77.6684 119.871 77.6684 118.169Z" fill="#EEEFE1"/>
<path d="M87.7839 111.456C88.5575 111.456 89.1958 110.837 89.1958 110.044C89.1958 109.27 88.5575 108.651 87.7839 108.651C86.9909 108.651 86.3913 109.27 86.3913 110.044C86.3913 110.837 86.9909 111.456 87.7839 111.456ZM86.6041 122.966H88.9638V113.41H86.6041V122.966Z" fill="#EEEFE1"/>
<path d="M91.0327 127.396H93.3343V121.651C93.9339 122.637 95.2298 123.218 96.6611 123.218C99.485 123.218 101.168 121.051 101.129 118.072C101.071 115.073 99.3496 113.12 96.6417 113.12C95.1912 113.12 93.8759 113.758 93.2956 114.861L93.1602 113.41H91.0327V127.396ZM93.431 118.188C93.431 116.466 94.4755 115.267 96.1195 115.267C97.7636 115.267 98.75 116.486 98.75 118.188C98.75 119.89 97.7636 121.09 96.1195 121.09C94.4755 121.09 93.431 119.91 93.431 118.188Z" fill="#EEEFE1"/>
<path d="M101.728 120.103C101.805 121.999 103.275 123.218 105.558 123.218C107.801 123.218 109.329 122.018 109.329 120.161C109.329 118.788 108.478 117.859 106.911 117.472L105.229 117.066C104.513 116.872 104.03 116.621 104.03 116.002C104.03 115.344 104.552 114.88 105.403 114.88C106.293 114.88 106.873 115.383 106.873 116.215H109.02C108.942 114.319 107.53 113.12 105.461 113.12C103.411 113.12 101.883 114.319 101.883 116.137C101.883 117.376 102.598 118.401 104.436 118.884L106.099 119.31C106.718 119.484 107.105 119.774 107.105 120.316C107.105 121.07 106.389 121.419 105.519 121.419C104.474 121.419 103.875 120.935 103.875 120.103H101.728Z" fill="#EEEFE1"/>
<path d="M114.224 123.218C115.519 123.218 116.757 122.618 117.318 121.728L117.473 122.966H119.678V113.41H117.318V118.42C117.318 120.142 116.661 121.109 115.113 121.109C113.914 121.109 113.082 120.529 113.082 118.556V113.41H110.723V119.387C110.723 121.67 111.961 123.218 114.224 123.218Z" fill="#EEEFE1"/>
<path d="M124.119 122.966V117.472C124.119 115.925 125.029 115.189 126.15 115.189C127.272 115.189 128.007 115.905 128.007 117.259V122.966H130.309V117.492C130.309 115.925 131.198 115.189 132.32 115.189C133.461 115.189 134.196 115.905 134.196 117.259V122.966H136.479V116.718C136.479 114.512 135.26 113.12 132.939 113.12C131.489 113.12 130.347 113.816 129.883 114.938C129.361 113.816 128.317 113.12 126.731 113.12C125.609 113.12 124.603 113.642 124.042 114.493L123.926 113.41H121.76V122.966H124.119Z" fill="#EEEFE1"/>
<path d="M87.3 95.544C84.1914 101.138 77.8619 103.8 71.4618 103.8H45.7834C72.5147 100.458 91.1312 87.0928 93.5179 68.4763C95.9047 87.0928 114.521 100.458 141.252 103.8H115.574C109.174 103.8 102.845 101.138 99.7358 95.544C96.3711 89.4891 94.2275 82.6376 93.5179 75.1592C92.8084 82.6376 90.6647 89.4891 87.3 95.544Z" fill="#EEEFE1"/>
<path d="M72.615 93.5669C71.1155 94.4111 69.5382 95.2041 67.8866 95.9428C66.9484 92.702 66.6032 89.3018 66.8785 85.9148C67.2427 81.4339 68.6817 77.1141 71.0681 73.338C73.4545 69.5619 76.7145 66.4459 80.5594 64.2663C84.4043 62.0866 88.7155 60.9105 93.111 60.842C97.5065 60.7736 101.851 61.815 105.759 63.8739C109.667 65.9328 113.018 68.9457 115.516 72.6458C118.013 76.3459 119.58 80.6189 120.078 85.0863C120.484 88.7404 120.166 92.4324 119.149 95.9428C117.498 95.2041 115.92 94.4111 114.421 93.5668C115.053 91.0004 115.23 88.3305 114.936 85.6853C114.534 82.0827 113.271 78.637 111.257 75.6533C109.243 72.6696 106.54 70.2399 103.389 68.5796C100.237 66.9193 96.7343 66.0795 93.1898 66.1347C89.6452 66.1899 86.1687 67.1383 83.0682 68.896C79.9677 70.6537 77.3388 73.1663 75.4144 76.2114C73.49 79.2565 72.3296 82.74 72.0359 86.3534C71.8385 88.7821 72.0367 91.2192 72.615 93.5669Z" fill="#EEEFE1"/>
</svg>
