<svg width="186" height="188" viewBox="0 0 186 188" fill="none" xmlns="http://www.w3.org/2000/svg">
<rect width="186" height="188" rx="2" fill="#EEEFE1" fill-opacity="0.1"/>
<path d="M67.3431 88.5543H70.4077V100.965H67.3431V88.5543ZM71.6297 96.2968C71.6297 93.2227 73.5391 91.3801 76.4032 91.3801C79.2672 91.3801 81.1766 93.2227 81.1766 96.2968C81.1766 99.3709 79.3341 101.233 76.4032 101.233C73.4723 101.233 71.6297 99.4377 71.6297 96.2968ZM78.1407 96.2968C78.1407 94.607 77.482 93.6141 76.4318 93.6141C75.3816 93.6141 74.7325 94.5688 74.7325 96.2968C74.7325 98.0248 75.3816 98.9699 76.4318 98.9699C77.482 98.9699 78.1598 98.0248 78.1598 96.3063L78.1407 96.2968ZM82.3986 101.605H85.3582C85.4929 101.923 85.7282 102.189 86.0282 102.362C86.3281 102.534 86.6762 102.604 87.0193 102.56C88.1936 102.56 88.8046 101.929 88.8046 100.994V99.2754H88.8141C88.5612 99.8105 88.1523 100.256 87.6411 100.555C87.1299 100.853 86.5404 100.989 85.9501 100.946C83.7065 100.946 82.2172 99.2372 82.2172 96.2968C82.2172 93.3564 83.6397 91.5233 86.036 91.5233C86.6414 91.491 87.242 91.6471 87.7548 91.9702C88.2678 92.2934 88.6679 92.7677 88.9001 93.3277H88.8141V91.5997H91.8501V100.898C91.8501 103.142 89.8643 104.545 86.9429 104.545C84.2889 104.536 82.5896 103.323 82.4177 101.614L82.3986 101.605ZM88.8141 96.2968C88.8141 94.7979 88.1268 93.8528 87.0384 93.8528C85.9501 93.8528 85.2818 94.8075 85.2818 96.2968C85.2818 97.7861 85.9405 98.6644 87.0384 98.6644C88.1363 98.6644 88.8141 97.8529 88.8141 96.2968ZM93.0625 96.2968C93.0625 93.2227 94.9719 91.3801 97.836 91.3801C100.7 91.3801 102.609 93.2227 102.609 96.2968C102.609 99.3709 100.757 101.233 97.836 101.233C94.9146 101.233 93.0816 99.4377 93.0816 96.2968H93.0625ZM99.5735 96.2968C99.5735 94.607 98.9052 93.6141 97.8646 93.6141C96.824 93.6141 96.1653 94.5688 96.1653 96.2968C96.1653 98.0248 96.8145 98.9699 97.8646 98.9699C98.9148 98.9699 99.5926 98.0248 99.5926 96.3063L99.5735 96.2968ZM103.851 89.3371C103.837 89.0249 103.918 88.7159 104.081 88.4498C104.245 88.1836 104.485 87.9727 104.769 87.8439C105.054 87.715 105.371 87.6743 105.679 87.727C105.987 87.7796 106.272 87.9232 106.498 88.1393C106.723 88.3554 106.879 88.634 106.945 88.9394C107.011 89.2448 106.984 89.563 106.868 89.8529C106.752 90.143 106.551 90.3916 106.293 90.5667C106.034 90.7419 105.729 90.8357 105.416 90.836C105.217 90.841 105.018 90.8064 104.832 90.7341C104.646 90.6617 104.475 90.5531 104.332 90.4146C104.188 90.276 104.073 90.1103 103.994 89.9269C103.914 89.7436 103.872 89.5464 103.87 89.3466L103.851 89.3371ZM103.851 91.5902H106.953V101.003H103.898L103.851 91.5902ZM118.114 96.2968C118.114 99.3614 116.739 101.137 114.4 101.137C113.801 101.174 113.205 101.026 112.693 100.714C112.181 100.401 111.777 99.9393 111.536 99.39H111.479V104.03H108.414V91.6188H111.459V93.2991H111.517C111.75 92.739 112.15 92.2642 112.662 91.9396C113.175 91.615 113.775 91.4563 114.381 91.4852C116.787 91.4661 118.171 93.2322 118.171 96.3063L118.114 96.2968ZM114.992 96.2968C114.992 94.8075 114.295 93.8432 113.216 93.8432C112.137 93.8432 111.459 94.7979 111.45 96.2968C111.44 97.7957 112.137 98.7408 113.216 98.7408C114.295 98.7408 115.049 97.8529 115.049 96.3063L114.992 96.2968ZM123.345 91.3706C125.913 91.3706 127.508 92.5831 127.527 94.5306H124.73C124.73 93.8528 124.166 93.4327 123.326 93.4327C122.486 93.4327 122.085 93.7573 122.085 94.2442C122.085 94.7311 122.438 94.8839 123.145 95.0271L125.111 95.428C127.021 95.829 127.785 96.5928 127.785 98.0152C127.785 99.9246 126.018 101.223 123.393 101.223C120.768 101.223 119.059 99.9628 118.935 98.0439H121.904C121.99 98.7408 122.543 99.1513 123.441 99.1513C124.338 99.1513 124.758 98.8649 124.758 98.3589C124.758 97.8529 124.472 97.767 123.737 97.6143L121.961 97.2419C120.118 96.8505 119.154 95.8863 119.154 94.4447C119.212 92.5735 120.815 91.3801 123.403 91.3801L123.345 91.3706ZM138.048 100.994H135.078V99.2277H135.021C134.855 99.8168 134.493 100.332 133.995 100.687C133.497 101.043 132.892 101.219 132.281 101.185C131.82 101.2 131.36 101.117 130.933 100.942C130.506 100.767 130.121 100.504 129.803 100.169C129.484 99.8347 129.241 99.4367 129.087 99.0013C128.933 98.566 128.873 98.103 128.911 97.6429V91.5997H131.976V96.9842C131.976 98.0916 132.558 98.6931 133.513 98.6931C133.737 98.6914 133.958 98.6416 134.161 98.5473C134.364 98.4529 134.545 98.316 134.69 98.1458C134.836 97.9757 134.944 97.7763 135.006 97.5611C135.067 97.3458 135.082 97.1198 135.05 96.8983V91.5997H138.105L138.048 100.994ZM139.527 91.5902H142.506V93.4041H142.573C142.737 92.823 143.09 92.3129 143.575 91.9535C144.061 91.5943 144.652 91.406 145.255 91.4183C145.862 91.3656 146.466 91.5409 146.949 91.9099C147.433 92.2789 147.762 92.8151 147.871 93.4136H148.005C148.196 92.8119 148.58 92.2901 149.098 91.9293C149.616 91.5684 150.239 91.3888 150.869 91.4183C151.288 91.4024 151.706 91.4751 152.095 91.6318C152.484 91.7884 152.836 92.0254 153.127 92.3274C153.418 92.6293 153.641 92.9893 153.784 93.3838C153.927 93.7782 153.984 94.1983 153.953 94.6165V101.003H150.869V95.3994C150.869 94.4447 150.42 93.9101 149.552 93.9101C149.359 93.9069 149.168 93.9455 148.991 94.023C148.815 94.1006 148.658 94.2155 148.53 94.3596C148.402 94.5039 148.307 94.6739 148.25 94.8584C148.195 95.0428 148.18 95.2371 148.205 95.428V101.003H145.284V95.3707C145.284 94.4161 144.816 93.9101 143.976 93.9101C143.781 93.9085 143.589 93.9486 143.411 94.0277C143.232 94.1068 143.074 94.223 142.944 94.3686C142.815 94.5142 142.719 94.6858 142.662 94.8717C142.603 95.0578 142.586 95.254 142.611 95.4471V101.003H139.546L139.527 91.5902Z" fill="#EEEFE1"/>
<path d="M61.281 89.3654C61.2811 87.4653 60.7074 85.6094 59.6349 84.0409C58.5624 82.4724 57.0411 81.2644 55.2704 80.5751C53.4997 79.8858 51.5621 79.7474 49.7114 80.178C47.8607 80.6085 46.1832 81.588 44.8985 82.9881H32.984V108.135H58.1401V96.3824C59.1274 95.4993 59.9175 94.4179 60.4588 93.2088C61 91.9997 61.2802 90.6902 61.281 89.3654ZM56.4408 89.3654C56.4427 90.2759 56.1744 91.1665 55.6699 91.9246C55.1654 92.6825 54.4475 93.2738 53.6067 93.6235C52.766 93.9733 51.8406 94.0658 50.9473 93.8893C50.0541 93.7129 49.2332 93.2754 48.5887 92.6322C47.9442 91.989 47.505 91.1691 47.3267 90.2762C47.1484 89.3834 47.239 88.4576 47.5869 87.6162C47.9349 86.7748 48.5247 86.0556 49.2816 85.5495C50.0386 85.0435 50.9286 84.7734 51.8391 84.7734C53.0579 84.7734 54.2269 85.2569 55.0896 86.1178C55.9523 86.9787 56.4383 88.1467 56.4408 89.3654ZM53.2998 103.294H37.8243V87.8284H42.5404C42.4494 88.3358 42.4014 88.85 42.3972 89.3654C42.3998 91.8688 43.3954 94.2689 45.1656 96.0391C46.9357 97.8092 49.3357 98.8048 51.8391 98.8073C52.3286 98.8047 52.817 98.7632 53.2998 98.6832V103.294Z" fill="#EEEFE1"/>
</svg>
