<svg width="97" height="68" viewBox="0 0 97 68" fill="none" xmlns="http://www.w3.org/2000/svg">
<path d="M6.96179 62.9665V48.5736H4.6021V62.9665H6.96179Z" fill="#EEEFE1"/>
<path d="M8.40612 58.1686C8.40612 61.109 10.379 63.1983 13.3769 63.1983C16.3748 63.1983 18.3477 61.109 18.3477 58.1686C18.3477 55.228 16.3748 53.1388 13.3769 53.1388C10.379 53.1388 8.40612 55.228 8.40612 58.1686ZM10.7851 58.1686C10.7851 56.4468 11.8103 55.2474 13.3769 55.2474C14.9436 55.2474 15.9687 56.4468 15.9687 58.1686C15.9687 59.8709 14.9436 61.0896 13.3769 61.0896C11.8103 61.0896 10.7851 59.8709 10.7851 58.1686Z" fill="#EEEFE1"/>
<path d="M19.1405 57.9751C19.1405 60.7609 20.9392 62.7728 23.6277 62.7728C25.0203 62.7728 26.2195 62.2118 26.8191 61.2832V62.9082C26.8191 64.4751 25.8327 65.5199 24.1886 65.5199C22.7187 65.5199 21.7129 64.804 21.5775 63.5466H19.1985C19.5079 66.0422 21.4228 67.6672 24.0532 67.6672C27.1479 67.6672 29.1207 65.6359 29.1207 62.4826V53.4097H27.0319L26.8965 54.7058C26.3162 53.6998 25.117 53.1001 23.705 53.1001C20.9779 53.1001 19.1405 55.1701 19.1405 57.9751ZM21.5388 57.9171C21.5388 56.3308 22.5446 55.1701 24.0339 55.1701C25.6586 55.1701 26.7417 56.3502 26.7417 57.9171C26.7417 59.5034 25.6586 60.7222 24.0339 60.7222C22.5639 60.7222 21.5388 59.5228 21.5388 57.9171Z" fill="#EEEFE1"/>
<path d="M30.2894 58.1686C30.2894 61.109 32.2623 63.1983 35.2602 63.1983C38.2581 63.1983 40.231 61.109 40.231 58.1686C40.231 55.228 38.2581 53.1388 35.2602 53.1388C32.2623 53.1388 30.2894 55.228 30.2894 58.1686ZM32.6684 58.1686C32.6684 56.4468 33.6935 55.2474 35.2602 55.2474C36.8268 55.2474 37.852 56.4468 37.852 58.1686C37.852 59.8709 36.8268 61.0896 35.2602 61.0896C33.6935 61.0896 32.6684 59.8709 32.6684 58.1686Z" fill="#EEEFE1"/>
<path d="M42.7839 51.4561C43.5575 51.4561 44.1958 50.837 44.1958 50.0438C44.1958 49.27 43.5575 48.651 42.7839 48.651C41.9909 48.651 41.3913 49.27 41.3913 50.0438C41.3913 50.837 41.9909 51.4561 42.7839 51.4561ZM41.6041 62.9665H43.9638V53.4099H41.6041V62.9665Z" fill="#EEEFE1"/>
<path d="M46.0327 67.3963H48.3343V61.6508C48.9339 62.6374 50.2298 63.2178 51.6611 63.2178C54.485 63.2178 56.1677 61.0511 56.1289 58.0719C56.071 55.0734 54.3496 53.1195 51.6417 53.1195C50.1912 53.1195 48.8759 53.7579 48.2956 54.8606L48.1602 53.4097H46.0327V67.3963ZM48.431 58.188C48.431 56.4663 49.4755 55.2668 51.1195 55.2668C52.7636 55.2668 53.75 56.4856 53.75 58.188C53.75 59.8904 52.7636 61.0897 51.1195 61.0897C49.4755 61.0897 48.431 59.9097 48.431 58.188Z" fill="#EEEFE1"/>
<path d="M56.7279 60.1032C56.8053 61.999 58.2752 63.2178 60.5575 63.2178C62.8011 63.2178 64.3291 62.0184 64.3291 60.1612C64.3291 58.7877 63.4781 57.8591 61.9115 57.4722L60.2287 57.0659C59.5131 56.8725 59.0295 56.621 59.0295 56.002C59.0295 55.3442 59.5517 54.88 60.4028 54.88C61.2925 54.88 61.8728 55.3829 61.8728 56.2148H64.0197C63.9423 54.3189 62.5304 53.1195 60.4608 53.1195C58.4106 53.1195 56.8826 54.3189 56.8826 56.1374C56.8826 57.3755 57.5983 58.4008 59.4357 58.8844L61.0991 59.31C61.718 59.4841 62.1049 59.7743 62.1049 60.316C62.1049 61.0705 61.3892 61.4186 60.5188 61.4186C59.4744 61.4186 58.8748 60.935 58.8748 60.1032H56.7279Z" fill="#EEEFE1"/>
<path d="M69.2235 63.2178C70.5194 63.2178 71.7573 62.6181 72.3181 61.7282L72.4729 62.9663H74.6778V53.4098H72.3181V58.4202C72.3181 60.1419 71.6605 61.1092 70.1133 61.1092C68.9141 61.1092 68.0824 60.5288 68.0824 58.5556V53.4098H65.7226V59.3875C65.7226 61.6702 66.9605 63.2178 69.2235 63.2178Z" fill="#EEEFE1"/>
<path d="M79.1195 62.9663V57.4722C79.1195 55.9246 80.0285 55.1895 81.1504 55.1895C82.2721 55.1895 83.0071 55.9052 83.0071 57.2594V62.9663H85.3088V57.4915C85.3088 55.9246 86.1985 55.1895 87.3203 55.1895C88.4615 55.1895 89.1965 55.9052 89.1965 57.2594V62.9663H91.4788V56.7177C91.4788 54.5124 90.2602 53.1195 87.9393 53.1195C86.4886 53.1195 85.3475 53.816 84.8833 54.938C84.3611 53.816 83.3167 53.1195 81.7306 53.1195C80.6088 53.1195 79.603 53.6418 79.0421 54.493L78.926 53.4097H76.7598V62.9663H79.1195Z" fill="#EEEFE1"/>
<path d="M42.3 35.544C39.1914 41.1383 32.8619 43.7999 26.4618 43.7999H0.783386C27.5147 40.4585 46.1312 27.0928 48.5179 8.47632C50.9047 27.0928 69.5211 40.4585 96.2525 43.7999H70.5741C64.174 43.7999 57.8445 41.1383 54.7358 35.544C51.3711 29.4891 49.2275 22.6376 48.5179 15.1592C47.8084 22.6376 45.6647 29.4891 42.3 35.544Z" fill="#EEEFE1"/>
<path d="M27.615 33.5669C26.1155 34.4111 24.5382 35.2041 22.8866 35.9428C21.9484 32.702 21.6032 29.3018 21.8785 25.9148C22.2427 21.4339 23.6817 17.1141 26.0681 13.338C28.4545 9.56188 31.7145 6.44595 35.5594 4.26628C39.4043 2.08663 43.7155 0.910478 48.111 0.842036C52.5065 0.773585 56.8506 1.81495 60.7587 3.87389C64.6667 5.93281 68.018 8.94572 70.5155 12.6458C73.0132 16.3459 74.5801 20.6189 75.0776 25.0863C75.4844 28.7404 75.1655 32.4324 74.1493 35.9428C72.4977 35.2041 70.9203 34.4111 69.4208 33.5668C70.053 31.0004 70.2302 28.3305 69.9356 25.6853C69.5345 22.0827 68.2709 18.637 66.2568 15.6533C64.2427 12.6696 61.5403 10.2399 58.3888 8.5796C55.2374 6.91927 51.7343 6.07952 48.1898 6.13471C44.6452 6.1899 41.1687 7.13835 38.0682 8.89598C34.9677 10.6537 32.3388 13.1663 30.4144 16.2114C28.49 19.2565 27.3296 22.74 27.0359 26.3534C26.8385 28.7821 27.0367 31.2192 27.615 33.5669Z" fill="#EEEFE1"/>
</svg>
