<svg width="118" height="34" viewBox="0 0 118 34" fill="none" xmlns="http://www.w3.org/2000/svg">
<path d="M16.7491 0.0231934C14.5552 0.0231934 12.3826 0.455382 10.3556 1.29494C8.32858 2.13459 6.48689 3.36518 4.93542 4.91656C3.38404 6.46803 2.15345 8.30972 1.3138 10.3367C0.474242 12.3637 0.0420532 14.5363 0.0420532 16.7303C0.0420532 18.9243 0.474242 21.0969 1.3138 23.1239C2.15345 25.1509 3.38404 26.9925 4.93542 28.544C6.48689 30.0954 8.32858 31.326 10.3556 32.1656C12.3826 33.0052 14.5552 33.4374 16.7491 33.4374V25.0838C15.6521 25.0838 14.5659 24.8678 13.5524 24.4479C12.5389 24.0281 11.618 23.4128 10.8423 22.6371C10.0666 21.8615 9.4513 20.9406 9.03152 19.9271C8.61165 18.9136 8.3956 17.8273 8.3956 16.7303C8.3956 15.6333 8.61165 14.547 9.03152 13.5335C9.4513 12.52 10.0666 11.5991 10.8423 10.8234C11.618 10.0477 12.5389 9.43244 13.5524 9.01266C14.5659 8.59279 15.6521 8.37674 16.7491 8.37674V0.0231934Z" fill="#EEEFE1"/>
<path d="M16.7487 22.2994C19.8244 22.2994 22.3177 19.8061 22.3177 16.7304C22.3177 13.6546 19.8244 11.1614 16.7487 11.1614C13.673 11.1614 11.1797 13.6546 11.1797 16.7304C11.1797 19.8061 13.673 22.2994 16.7487 22.2994Z" fill="#EEEFE1"/>
<path d="M0.0420532 16.7301C0.0420532 18.9241 0.474242 21.0967 1.3138 23.1237C2.15345 25.1507 3.38404 26.9924 4.93542 28.5438C6.48689 30.0952 8.32858 31.3258 10.3556 32.1655C12.3826 33.005 14.5552 33.4372 16.7491 33.4372C18.9431 33.4372 21.1157 33.005 23.1427 32.1655C25.1697 31.3258 27.0114 30.0952 28.5629 28.5438C30.1142 26.9924 31.3448 25.1507 32.1845 23.1237C33.024 21.0967 33.4562 18.9241 33.4562 16.7301H25.1027C25.1027 17.8271 24.8866 18.9134 24.4668 19.9269C24.047 20.9404 23.4317 21.8613 22.656 22.637C21.8803 23.4127 20.9594 24.028 19.9459 24.4477C18.9324 24.8676 17.8462 25.0836 16.7491 25.0836C15.6521 25.0836 14.5659 24.8676 13.5524 24.4477C12.5389 24.028 11.618 23.4127 10.8423 22.637C10.0666 21.8613 9.4513 20.9404 9.03152 19.9269C8.61165 18.9134 8.3956 17.8271 8.3956 16.7301H0.0420532Z" fill="#EEEFE1"/>
<path d="M22.3178 16.7302C22.3178 15.2532 21.731 13.8367 20.6867 12.7923C19.6423 11.7479 18.2258 11.1611 16.7488 11.1611C15.2718 11.1611 13.8553 11.7479 12.8109 12.7923C11.7664 13.8367 11.1797 15.2532 11.1797 16.7302H16.7488H22.3178Z" fill="#EEEFE1"/>
<path d="M42.1825 10.4532H40.1075V21.9811H42.1825V10.4532Z" fill="#EEEFE1"/>
<path d="M43.5366 17.8968C43.5366 20.5646 45.3811 22.2115 47.8184 22.2115C50.2557 22.2115 52.1002 20.5646 52.1002 17.8968C52.1002 15.2289 50.2557 13.582 47.8184 13.582C45.3811 13.582 43.5366 15.2289 43.5366 17.8968ZM45.6116 17.8968C45.6116 16.3158 46.5339 15.3936 47.8184 15.3936C49.1029 15.3936 50.0252 16.3158 50.0252 17.8968C50.0252 19.4777 49.1029 20.4 47.8184 20.4C46.5339 20.4 45.6116 19.4777 45.6116 17.8968Z" fill="#EEEFE1"/>
<path d="M59.5146 13.8126V14.9159H59.3499C58.8559 14.2078 58.0654 13.582 56.6491 13.582C54.7058 13.582 52.9602 15.2289 52.9602 17.765C52.9602 20.3011 54.7058 21.948 56.6491 21.948C58.0654 21.948 58.8559 21.3057 59.317 20.6635H59.4817V21.4539C59.4817 23.0349 58.5594 23.7595 57.209 23.7595C55.8586 23.7595 55.1669 23.0349 54.8869 22.0962L53.026 22.9032C53.4542 24.1382 54.7058 25.5052 57.242 25.5052C59.844 25.5052 61.5567 24.1382 61.5567 21.5033V13.8126H59.5146ZM57.2749 20.1694C55.9904 20.1694 55.0352 19.2472 55.0352 17.765C55.0352 16.2829 55.9904 15.3606 57.2749 15.3606C58.5594 15.3606 59.5146 16.2829 59.5146 17.765C59.5146 19.2472 58.5594 20.1694 57.2749 20.1694Z" fill="#EEEFE1"/>
<path d="M62.9005 17.8968C62.9005 20.5646 64.7449 22.2115 67.1822 22.2115C69.6196 22.2115 71.4639 20.5646 71.4639 17.8968C71.4639 15.2289 69.6196 13.582 67.1822 13.582C64.7449 13.582 62.9005 15.2289 62.9005 17.8968ZM64.9755 17.8968C64.9755 16.3158 65.8977 15.3936 67.1822 15.3936C68.4668 15.3936 69.389 16.3158 69.389 17.8968C69.389 19.4777 68.4668 20.4 67.1822 20.4C65.8977 20.4 64.9755 19.4777 64.9755 17.8968Z" fill="#EEEFE1"/>
<path d="M73.0926 11.4416C73.0926 12.2815 73.7351 12.8578 74.559 12.8578C75.3819 12.8578 76.0244 12.2815 76.0244 11.4416C76.0244 10.6017 75.3819 10.0253 74.559 10.0253C73.7351 10.0253 73.0926 10.6017 73.0926 11.4416ZM75.5958 13.813H73.5213V21.9813H75.5958V13.813Z" fill="#EEEFE1"/>
<path d="M77.4449 25.2746H79.5204V20.9269H79.6847C80.1458 21.5857 80.9363 22.2115 82.353 22.2115C84.2958 22.2115 86.0419 20.5646 86.0419 17.8968C86.0419 15.2289 84.2958 13.582 82.353 13.582C80.9363 13.582 80.1458 14.2078 79.6522 14.916H79.487V13.8126H77.4449V25.2746ZM81.7267 20.4329C80.4427 20.4329 79.487 19.5107 79.487 17.8968C79.487 16.2829 80.4427 15.3606 81.7267 15.3606C83.0118 15.3606 83.9664 16.2829 83.9664 17.8968C83.9664 19.5107 83.0118 20.4329 81.7267 20.4329Z" fill="#EEEFE1"/>
<path d="M87.2516 16.1017C87.2516 17.7157 88.6016 18.3085 90.3143 18.6379L90.743 18.7202C91.7635 18.9178 92.2246 19.1649 92.2246 19.6919C92.2246 20.2189 91.7635 20.6305 90.8088 20.6305C89.8532 20.6305 89.0799 20.2353 88.8651 19.0495L86.9547 19.5436C87.2354 21.2563 88.6675 22.2115 90.8088 22.2115C92.8834 22.2115 94.2343 21.2399 94.2343 19.5272C94.2343 17.8144 92.8509 17.3533 91.0064 16.991L90.5778 16.9087C89.7214 16.744 89.2603 16.5134 89.2603 15.97C89.2603 15.4759 89.689 15.163 90.4795 15.163C91.2699 15.163 91.8294 15.4924 92.027 16.3817L93.9049 15.8053C93.5097 14.4878 92.3077 13.582 90.4795 13.582C88.5357 13.582 87.2516 14.4878 87.2516 16.1017Z" fill="#EEEFE1"/>
<path d="M103.556 21.9812V13.8129H101.481V18.0288C101.481 19.5439 100.741 20.4332 99.4718 20.4332C98.3519 20.4332 97.7266 19.8239 97.7266 18.5887V13.8129H95.6511V18.6875C95.6511 20.7132 96.9199 22.113 98.8302 22.113C100.328 22.113 101.02 21.4542 101.35 20.7625H101.514V21.9812H103.556Z" fill="#EEEFE1"/>
<path d="M105.396 13.8128V21.9811H107.471V17.1065C107.471 15.9866 107.998 15.3608 108.953 15.3608C109.777 15.3608 110.27 15.8219 110.27 16.7112V21.9811H112.346V17.1065C112.346 15.9866 112.873 15.3608 113.827 15.3608C114.651 15.3608 115.145 15.8219 115.145 16.7112V21.9811H117.22V16.6124C117.22 14.6362 116.001 13.681 114.486 13.681C113.152 13.681 112.543 14.2739 112.148 14.9656H111.983C111.604 14.1916 110.929 13.681 109.743 13.681C108.558 13.681 107.915 14.208 107.603 14.8338H107.438V13.8128H105.396Z" fill="#EEEFE1"/>
</svg>
