<svg width="266.142914" height="18.000000" viewBox="0 0 266.143 18" fill="none" xmlns="http://www.w3.org/2000/svg" xmlns:xlink="http://www.w3.org/1999/xlink">
	<desc>
			Created with Pixso.
	</desc>
	<defs>
		<clipPath id="clip290_100">
			<rect id="Layer_1" width="266.142914" height="18.000000" fill="white" fill-opacity="0"/>
		</clipPath>
	</defs>
	<rect id="Layer_1" width="266.142914" height="18.000000" fill="#FFFFFF" fill-opacity="0"/>
	<g clip-path="url(#clip290_100)">
		<path id="Vector" d="M8.37177 12.5425C8.37177 12.0117 8.17633 11.6021 7.78534 11.3076C7.39441 11.0195 6.72748 10.7656 5.78461 10.5464C5.00842 10.3789 4.27826 10.1597 3.59985 9.88281C2.92139 9.61182 2.33496 9.26562 1.83478 8.8501C1.34033 8.43457 0.943665 7.93262 0.656189 7.34424C0.368713 6.75586 0.219238 6.06348 0.219238 5.26172C0.219238 4.52881 0.357178 3.84229 0.638916 3.20801C0.920654 2.56738 1.31732 2.01367 1.82904 1.53467C2.3407 1.06152 2.9444 0.686523 3.6286 0.415527C4.31848 0.138672 5.07166 0.00585938 5.8996 0.00585938C6.72748 0.00585938 7.49213 0.144531 8.19934 0.415527C8.90076 0.686523 9.51013 1.06152 10.0104 1.53467C10.5163 2.00781 10.9072 2.56738 11.189 3.20801C11.4707 3.84814 11.6086 4.53467 11.6086 5.26172L11.6086 5.63672C11.6086 5.76953 11.5569 5.88477 11.4592 5.98291C11.3615 6.08105 11.2465 6.13281 11.1143 6.13281L8.60754 6.13281C8.47528 6.13281 8.36029 6.08105 8.26257 5.98291C8.16479 5.88477 8.1131 5.76953 8.1131 5.63672L8.1131 5.26172C8.1131 4.76562 7.92334 4.32715 7.54388 3.95215C7.16443 3.57715 6.61823 3.39258 5.90533 3.39258C5.19238 3.39258 4.67499 3.55957 4.30127 3.88867C3.92755 4.22314 3.74359 4.63867 3.74359 5.13477C3.74359 5.63086 3.95056 6.00586 4.3645 6.29443C4.77844 6.58301 5.30737 6.79639 5.95709 6.92871C6.81946 7.11377 7.61865 7.33838 8.35455 7.61523C9.09045 7.88672 9.7229 8.24414 10.2576 8.68848C10.7922 9.13281 11.2062 9.66357 11.5109 10.2983C11.8157 10.9272 11.9709 11.6772 11.9709 12.5425C11.9709 13.356 11.8214 14.0942 11.5225 14.7637C11.2234 15.4272 10.8038 16.0039 10.2691 16.4829C9.72864 16.9673 9.09045 17.3364 8.34302 17.6021C7.59564 17.8672 6.78497 18 5.91107 18C5.03717 18 4.26099 17.856 3.53662 17.5791C2.81793 17.2964 2.19702 16.9097 1.67383 16.4194C1.15063 15.9287 0.742432 15.3521 0.44342 14.6885C0.14447 14.0249 -0.00500488 13.3096 -0.00500488 12.5425L-0.00500488 11.7925C-0.00500488 11.6597 0.0467529 11.5444 0.14447 11.4463C0.242188 11.3481 0.357178 11.2964 0.489441 11.2964L3.00763 11.2964C3.13989 11.2964 3.25488 11.3481 3.3526 11.4463C3.45038 11.5444 3.50208 11.6655 3.50208 11.7925L3.50208 12.5425C3.50208 13.125 3.70905 13.6099 4.12305 14.002C4.53699 14.3945 5.13489 14.5903 5.91107 14.5903C6.68726 14.5903 7.25067 14.3945 7.6991 14.002C8.14758 13.6099 8.37177 13.125 8.37177 12.5425Z" fill="#000000" fill-opacity="1.000000" fill-rule="nonzero"/>
		<path id="Vector" d="M25.0201 0.524902C25.0547 0.473145 25.1064 0.420898 25.1812 0.363281C25.2559 0.305664 25.3824 0.276855 25.5663 0.276855L28.0731 0.276855C28.303 0.276855 28.4641 0.380859 28.556 0.588379C28.648 0.795898 28.625 0.992188 28.4928 1.17676L23.8473 8.05957C23.7323 8.22705 23.6748 8.36523 23.6863 8.48047C23.6921 8.59619 23.7496 8.729 23.8473 8.87891L28.9412 16.7827C29.0562 16.9673 29.0677 17.1689 28.9814 17.394C28.8895 17.6191 28.7055 17.729 28.4238 17.729L25.7388 17.729C25.5549 17.729 25.4226 17.6943 25.3422 17.6309C25.2617 17.5674 25.1984 17.498 25.1697 17.4287L20.9209 10.6211C20.8864 10.5693 20.8404 10.5518 20.7714 10.5576C20.7024 10.5635 20.6736 10.6094 20.6736 10.6963L20.6736 17.2271C20.6736 17.3594 20.6219 17.4751 20.5242 17.5732C20.4265 17.6709 20.3115 17.7231 20.1792 17.7231L17.7185 17.7231C17.5862 17.7231 17.4713 17.6709 17.3735 17.5732C17.2758 17.4751 17.2241 17.3594 17.2241 17.2271L17.2241 0.772949C17.2241 0.640137 17.2758 0.524902 17.3735 0.426758C17.4713 0.328613 17.5862 0.276855 17.7185 0.276855L20.1792 0.276855C20.3115 0.276855 20.4265 0.328613 20.5242 0.426758C20.6219 0.524902 20.6736 0.645996 20.6736 0.772949L20.6736 6.50781C20.6736 6.58838 20.7082 6.63477 20.7714 6.646C20.8347 6.65771 20.8864 6.63477 20.9209 6.58252L25.0201 0.524902Z" fill="#000000" fill-opacity="1.000000" fill-rule="nonzero"/>
		<path id="Vector" d="M36.2732 17.3535C36.2214 17.6016 36.0662 17.7285 35.8018 17.7285L33.1915 17.7285C32.9903 17.7285 32.8524 17.6768 32.7719 17.5674C32.6913 17.4575 32.6626 17.3481 32.6971 17.2324L37.1414 0.645996C37.1931 0.397949 37.3483 0.270996 37.6128 0.270996L40.9417 0.270996C41.2061 0.270996 41.3613 0.397949 41.4131 0.645996L45.8344 17.2266C45.8688 17.3423 45.8401 17.4575 45.7596 17.5615C45.6791 17.6709 45.5354 17.7231 45.3399 17.7231L42.7297 17.7231C42.4998 17.7231 42.3387 17.5962 42.2582 17.3481L41.4879 14.7808C41.4534 14.6826 41.4131 14.5962 41.3614 14.521C41.3096 14.4458 41.2291 14.4116 41.1141 14.4116L37.3368 14.4116C37.1356 14.4116 37.0148 14.5381 36.9631 14.7866L36.2675 17.3535L36.2732 17.3535ZM37.9117 10.6499C37.86 10.8345 37.929 10.9209 38.113 10.9209L40.4012 10.9209C40.5852 10.9209 40.6484 10.8286 40.6024 10.6499L39.4124 4.66699C39.3951 4.60352 39.3549 4.56885 39.2858 4.56885L39.2341 4.56885C39.1651 4.56885 39.1249 4.60352 39.1076 4.66699L37.9175 10.6499L37.9117 10.6499Z" fill="#000000" fill-opacity="1.000000" fill-rule="nonzero"/>
		<path id="Vector" d="M54.9292 13.9844C54.9292 14.1519 55.0097 14.2324 55.1765 14.2324L61.3857 14.2324C61.5179 14.2324 61.6329 14.2847 61.7365 14.3828C61.8342 14.4805 61.8859 14.6021 61.8859 14.729L61.8859 17.2212C61.8859 17.354 61.8342 17.4692 61.7365 17.5674C61.6387 17.6655 61.5179 17.7173 61.3857 17.7173L51.9453 17.7173C51.813 17.7173 51.6981 17.6655 51.6003 17.5674C51.5026 17.4692 51.4509 17.354 51.4509 17.2212L51.4509 0.772949C51.4509 0.640137 51.5026 0.524902 51.6003 0.426758C51.6981 0.328613 51.813 0.276855 51.9453 0.276855L54.429 0.276855C54.5613 0.276855 54.6763 0.328613 54.774 0.426758C54.8717 0.524902 54.9235 0.645996 54.9235 0.772949L54.9235 13.9844L54.9292 13.9844Z" fill="#000000" fill-opacity="1.000000" fill-rule="nonzero"/>
		<path id="Vector" d="M69.5613 17.3535C69.5096 17.6016 69.3544 17.7285 69.0899 17.7285L66.4797 17.7285C66.2784 17.7285 66.1405 17.6768 66.06 17.5674C65.9795 17.4575 65.9507 17.3481 65.9852 17.2324L70.4352 0.645996C70.487 0.397949 70.6422 0.270996 70.9067 0.270996L74.2355 0.270996C74.5 0.270996 74.6553 0.397949 74.707 0.645996L79.1282 17.2266C79.1627 17.3423 79.134 17.4575 79.0535 17.5615C78.973 17.6709 78.8293 17.7231 78.6338 17.7231L76.0236 17.7231C75.7936 17.7231 75.6326 17.5962 75.5521 17.3481L74.7817 14.7808C74.7473 14.6826 74.707 14.5962 74.6553 14.521C74.6035 14.4458 74.523 14.4116 74.408 14.4116L70.6307 14.4116C70.4295 14.4116 70.3088 14.5381 70.257 14.7866L69.5613 17.3535ZM71.1999 10.6499C71.1481 10.8345 71.2172 10.9209 71.4011 10.9209L73.6894 10.9209C73.8734 10.9209 73.9366 10.8286 73.8906 10.6499L72.7005 4.66699C72.6832 4.60352 72.643 4.56885 72.574 4.56885L72.5222 4.56885C72.4532 4.56885 72.413 4.60352 72.3958 4.66699L71.2056 10.6499L71.1999 10.6499Z" fill="#000000" fill-opacity="1.000000" fill-rule="nonzero"/>
		<path id="Vector" d="M93.4666 8.50391C93.2999 8.6709 93.2999 8.82129 93.4666 8.95361C93.6678 9.13818 93.8576 9.35205 94.0358 9.6001C94.2198 9.84814 94.375 10.125 94.5073 10.4248C94.6395 10.7251 94.743 11.0425 94.8177 11.3711C94.8925 11.6997 94.9269 12.0288 94.9269 12.3403C94.9269 13.1538 94.8062 13.8921 94.5648 14.5615C94.3232 15.2251 93.9783 15.7905 93.5356 16.2578C93.0929 16.7251 92.5525 17.0825 91.92 17.3423C91.2876 17.6021 90.5919 17.729 89.833 17.729L83.9687 17.729C83.8365 17.729 83.7215 17.6768 83.618 17.5786C83.5203 17.4805 83.4685 17.3652 83.4685 17.2324L83.4685 0.772949C83.4685 0.640137 83.5203 0.524902 83.618 0.426758C83.7158 0.328613 83.8307 0.276855 83.9687 0.276855L89.833 0.276855C90.5287 0.276855 91.1726 0.409668 91.7706 0.674805C92.3685 0.94043 92.8859 1.30371 93.3229 1.75977C93.7598 2.21533 94.1048 2.75781 94.3521 3.38086C94.5992 4.00391 94.7257 4.66162 94.7257 5.35938C94.7257 5.90771 94.605 6.479 94.3635 7.06738C94.1221 7.65576 93.8231 8.13477 93.4551 8.49805L93.4666 8.50391ZM87.1309 3.76709C86.9641 3.76709 86.8836 3.84814 86.8836 4.01514L86.8836 6.73242C86.8836 6.8999 86.9641 6.98047 87.1309 6.98047L89.7123 6.98047C90.1435 6.98047 90.5229 6.81934 90.8564 6.49609C91.1899 6.17285 91.3509 5.79248 91.3509 5.35938C91.3509 4.92676 91.1841 4.55176 90.8564 4.24023C90.5229 3.92285 90.1435 3.76709 89.7123 3.76709L87.1309 3.76709ZM89.7123 14.2383C90.2412 14.2383 90.6667 14.0479 90.9772 13.6675C91.2934 13.2866 91.4486 12.8423 91.4486 12.3462C91.4486 11.8501 91.2934 11.4346 90.9772 11.0479C90.6609 10.6675 90.2412 10.4771 89.7123 10.4771L87.1309 10.4771C86.9641 10.4771 86.8836 10.5576 86.8836 10.7251L86.8836 13.9902C86.8836 14.1577 86.9641 14.2383 87.1309 14.2383L89.7123 14.2383Z" fill="#000000" fill-opacity="1.000000" fill-rule="nonzero"/>
		<path id="Vector" d="M102.857 17.354C102.805 17.6021 102.65 17.729 102.385 17.729L99.775 17.729C99.5738 17.729 99.4359 17.6768 99.3553 17.5674C99.2748 17.4575 99.2461 17.3481 99.2806 17.2324L103.731 0.651855C103.782 0.403809 103.938 0.276855 104.202 0.276855L107.531 0.276855C107.795 0.276855 107.951 0.403809 108.002 0.651855L112.424 17.2324C112.458 17.3481 112.429 17.4634 112.349 17.5674C112.268 17.6768 112.125 17.729 111.929 17.729L109.319 17.729C109.089 17.729 108.928 17.6021 108.848 17.354L108.077 14.7866C108.043 14.6885 108.002 14.6021 107.951 14.5269C107.899 14.4517 107.818 14.4175 107.703 14.4175L103.926 14.4175C103.725 14.4175 103.604 14.5439 103.552 14.7925L102.857 17.3594L102.857 17.354ZM104.495 10.6499C104.443 10.8345 104.513 10.9209 104.696 10.9209L106.985 10.9209C107.169 10.9209 107.232 10.8286 107.186 10.6499L105.996 4.66748C105.979 4.604 105.938 4.56934 105.869 4.56934L105.818 4.56934C105.749 4.56934 105.708 4.604 105.691 4.66748L104.501 10.6499L104.495 10.6499Z" fill="#000000" fill-opacity="1.000000" fill-rule="nonzero"/>
		<path id="Vector" d="M128.095 17.2271C128.095 17.3594 128.043 17.4751 127.945 17.5732C127.847 17.6709 127.727 17.7231 127.594 17.7231L124.662 17.7231C124.444 17.7231 124.289 17.6768 124.191 17.5845C124.093 17.4922 124.024 17.3999 123.99 17.2959L120.609 8.54395C120.574 8.46338 120.528 8.42871 120.471 8.44629C120.413 8.46338 120.385 8.50977 120.385 8.59619L120.385 17.2212C120.385 17.354 120.333 17.4692 120.235 17.5674C120.138 17.6655 120.023 17.7173 119.89 17.7173L117.407 17.7173C117.274 17.7173 117.159 17.6655 117.062 17.5674C116.964 17.4692 116.912 17.354 116.912 17.2212L116.912 0.772949C116.912 0.640137 116.964 0.524902 117.062 0.426758C117.159 0.328613 117.274 0.276855 117.407 0.276855L120.362 0.276855C120.546 0.276855 120.684 0.323242 120.781 0.415527C120.879 0.507812 120.948 0.611328 120.983 0.727051L124.386 10.1997C124.421 10.2808 124.467 10.3154 124.524 10.2979C124.582 10.2808 124.61 10.2344 124.61 10.1479L124.61 0.772949C124.61 0.640137 124.662 0.524902 124.76 0.426758C124.858 0.328613 124.973 0.276855 125.111 0.276855L127.594 0.276855C127.727 0.276855 127.842 0.328613 127.945 0.426758C128.043 0.524902 128.095 0.645996 128.095 0.772949L128.095 17.2271Z" fill="#000000" fill-opacity="1.000000" fill-rule="nonzero"/>
		<path id="Vector" d="M148.034 12.6406C148.034 12.5078 148.086 12.3926 148.184 12.2944C148.281 12.1963 148.396 12.1445 148.529 12.1445L149.201 12.1445C149.333 12.1445 149.448 12.1963 149.546 12.2944C149.644 12.3926 149.696 12.5078 149.696 12.6406L149.696 12.7388C149.696 13.5522 149.546 14.2788 149.247 14.9194C148.948 15.5596 148.546 16.1021 148.04 16.5522C147.534 17.002 146.948 17.3423 146.275 17.5732C145.602 17.8042 144.895 17.9194 144.153 17.9194C142.647 17.9194 141.399 17.458 140.416 16.5347C139.433 15.6118 138.829 14.3423 138.617 12.7329C138.548 12.2368 138.502 11.6538 138.467 11.002C138.433 10.3442 138.415 9.67529 138.415 8.98291C138.415 8.29053 138.433 7.62158 138.467 6.9751C138.502 6.3291 138.548 5.75195 138.617 5.25586C138.714 4.5752 138.904 3.92334 139.186 3.30029C139.468 2.67725 139.841 2.12305 140.301 1.64453C140.767 1.15967 141.313 0.778809 141.951 0.496582C142.589 0.213867 143.32 0.0751953 144.148 0.0751953C144.975 0.0751953 145.706 0.213867 146.396 0.496582C147.086 0.778809 147.666 1.15967 148.149 1.63281C148.632 2.10596 149.006 2.65967 149.282 3.28857C149.558 3.91748 149.69 4.5752 149.69 5.25586L149.69 5.354C149.69 5.48682 149.638 5.60205 149.54 5.70605C149.443 5.8042 149.328 5.85596 149.195 5.85596L148.523 5.85596C148.391 5.85596 148.276 5.8042 148.178 5.70605C148.08 5.60791 148.028 5.48682 148.028 5.354L148.028 5.25586C148.028 4.78857 147.936 4.34424 147.752 3.91162C147.568 3.479 147.31 3.09814 146.971 2.76367C146.631 2.4292 146.223 2.16357 145.752 1.96729C145.28 1.76562 144.745 1.66748 144.148 1.66748C143.55 1.66748 143.032 1.76562 142.584 1.96729C142.135 2.16943 141.75 2.43457 141.428 2.77539C141.106 3.11572 140.847 3.50195 140.658 3.93457C140.468 4.36768 140.336 4.80615 140.273 5.25586C140.192 5.76953 140.129 6.35205 140.1 6.99805C140.066 7.64453 140.048 8.31348 140.048 8.99463C140.048 9.67529 140.066 10.3389 140.1 10.9907C140.135 11.6367 140.192 12.2192 140.273 12.7329C140.324 13.0962 140.428 13.4888 140.583 13.9038C140.738 14.3193 140.974 14.7061 141.279 15.0635C141.583 15.4214 141.969 15.7212 142.434 15.9639C142.9 16.2061 143.469 16.3271 144.148 16.3271C144.826 16.3271 145.384 16.2119 145.872 15.981C146.361 15.75 146.769 15.4561 147.091 15.0981C147.413 14.7407 147.649 14.3481 147.798 13.9272C147.948 13.5059 148.023 13.1079 148.023 12.7446L148.023 12.6465L148.034 12.6406Z" fill="#000000" fill-opacity="1.000000" fill-rule="nonzero"/>
		<path id="Vector" d="M159.315 17.354C159.263 17.6021 159.108 17.729 158.843 17.729L158.222 17.729C158.021 17.729 157.883 17.6768 157.803 17.5674C157.722 17.4575 157.693 17.3481 157.728 17.2324L162.471 0.651855C162.523 0.403809 162.678 0.276855 162.943 0.276855L164.184 0.276855C164.449 0.276855 164.604 0.403809 164.656 0.651855L169.399 17.2324C169.434 17.3481 169.405 17.4634 169.324 17.5674C169.244 17.6768 169.1 17.729 168.905 17.729L168.284 17.729C168.019 17.729 167.864 17.6021 167.812 17.354L166.593 13.1421C166.513 12.9116 166.352 12.7959 166.122 12.7959L161.005 12.7959C160.775 12.7959 160.614 12.9116 160.534 13.1421L159.315 17.354ZM161.177 10.9731C161.126 11.1577 161.195 11.2441 161.379 11.2441L165.754 11.2441C165.938 11.2441 166.001 11.1519 165.955 10.9731L163.696 2.49805C163.661 2.3999 163.627 2.34814 163.598 2.34814L163.546 2.34814C163.494 2.34814 163.466 2.3999 163.448 2.49805L161.189 10.9731L161.177 10.9731Z" fill="#000000" fill-opacity="1.000000" fill-rule="nonzero"/>
		<path id="Vector" d="M179.937 17.2271C179.937 17.3594 179.885 17.4751 179.788 17.5732C179.69 17.6709 179.575 17.7231 179.443 17.7231L178.845 17.7231C178.713 17.7231 178.598 17.6709 178.5 17.5732C178.402 17.4751 178.35 17.3594 178.35 17.2271L178.35 0.772949C178.35 0.640137 178.402 0.524902 178.5 0.426758C178.598 0.328613 178.713 0.276855 178.845 0.276855L183.071 0.276855C183.784 0.276855 184.456 0.415527 185.094 0.686523C185.733 0.963379 186.285 1.33252 186.762 1.80566C187.233 2.27881 187.607 2.83838 187.877 3.479C188.153 4.11914 188.285 4.79395 188.285 5.50977C188.285 6.2251 188.147 6.92285 187.877 7.55176C187.601 8.18652 187.233 8.73438 186.762 9.20752C186.29 9.68066 185.733 10.0557 185.094 10.3267C184.456 10.5981 183.784 10.7363 183.071 10.7363L180.19 10.7363C180.023 10.7363 179.943 10.8174 179.943 10.9844L179.943 17.2153L179.937 17.2271ZM180.184 1.86914C180.018 1.86914 179.937 1.95557 179.937 2.11719L179.937 8.90186C179.937 9.06934 180.018 9.1499 180.184 9.1499L183.065 9.1499C183.559 9.1499 184.031 9.05176 184.468 8.86133C184.905 8.6709 185.29 8.41162 185.623 8.07666C185.957 7.74219 186.216 7.35547 186.405 6.91748C186.595 6.479 186.693 6.00586 186.693 5.50977C186.693 5.01318 186.595 4.54053 186.405 4.10205C186.216 3.66357 185.951 3.27686 185.623 2.94238C185.29 2.60742 184.905 2.34814 184.468 2.15771C184.031 1.96729 183.559 1.86914 183.065 1.86914L180.184 1.86914Z" fill="#000000" fill-opacity="1.000000" fill-rule="nonzero"/>
		<path id="Vector" d="M201.75 2.01904C201.75 1.85205 201.67 1.771 201.503 1.771L198.398 1.771C198.266 1.771 198.151 1.71924 198.053 1.62109C197.956 1.52295 197.904 1.40771 197.904 1.2749L197.904 0.772949C197.904 0.640137 197.956 0.524902 198.053 0.426758C198.151 0.328613 198.266 0.276855 198.398 0.276855L206.723 0.276855C206.856 0.276855 206.971 0.328613 207.068 0.426758C207.166 0.524902 207.218 0.645996 207.218 0.772949L207.218 1.2749C207.218 1.40771 207.166 1.52295 207.068 1.62109C206.971 1.71924 206.856 1.771 206.723 1.771L203.619 1.771C203.452 1.771 203.372 1.85205 203.372 2.01904L203.372 15.9575C203.372 16.125 203.452 16.2056 203.619 16.2056L206.971 16.2056C207.103 16.2056 207.218 16.2578 207.316 16.3555C207.413 16.4536 207.465 16.5747 207.465 16.7075L207.465 17.2324C207.465 17.3652 207.413 17.4805 207.316 17.5786C207.218 17.6768 207.103 17.729 206.971 17.729L198.151 17.729C198.019 17.729 197.904 17.6768 197.8 17.5786C197.703 17.4805 197.651 17.3652 197.651 17.2324L197.651 16.7075C197.651 16.5747 197.703 16.4595 197.8 16.3555C197.898 16.2578 198.013 16.2056 198.151 16.2056L201.503 16.2056C201.67 16.2056 201.75 16.125 201.75 15.9575L201.75 2.01904Z" fill="#000000" fill-opacity="1.000000" fill-rule="nonzero"/>
		<path id="Vector" d="M216.876 1.86914C216.744 1.86914 216.629 1.81738 216.531 1.71924C216.434 1.62109 216.382 1.50586 216.382 1.37305L216.382 0.772949C216.382 0.640137 216.434 0.524902 216.531 0.426758C216.629 0.328613 216.744 0.276855 216.876 0.276855L227.311 0.276855C227.443 0.276855 227.558 0.328613 227.656 0.426758C227.754 0.524902 227.806 0.645996 227.806 0.772949L227.806 1.37305C227.806 1.50586 227.754 1.62109 227.656 1.71924C227.558 1.81738 227.443 1.86914 227.311 1.86914L223.16 1.86914C222.993 1.86914 222.913 1.95557 222.913 2.11719L222.913 17.2271C222.913 17.3594 222.861 17.4751 222.764 17.5732C222.666 17.6709 222.545 17.7231 222.413 17.7231L221.792 17.7231C221.66 17.7231 221.545 17.6709 221.447 17.5732C221.349 17.4751 221.297 17.3594 221.297 17.2271L221.297 2.11719C221.297 1.94971 221.217 1.86914 221.05 1.86914L216.876 1.86914Z" fill="#000000" fill-opacity="1.000000" fill-rule="nonzero"/>
		<path id="Vector" d="M237.326 17.354C237.275 17.6021 237.119 17.729 236.855 17.729L236.234 17.729C236.033 17.729 235.895 17.6768 235.814 17.5674C235.734 17.4575 235.705 17.3481 235.74 17.2324L240.483 0.651855C240.535 0.403809 240.69 0.276855 240.954 0.276855L242.196 0.276855C242.461 0.276855 242.616 0.403809 242.668 0.651855L247.411 17.2324C247.445 17.3481 247.417 17.4634 247.336 17.5674C247.256 17.6768 247.112 17.729 246.916 17.729L246.295 17.729C246.031 17.729 245.876 17.6021 245.824 17.354L244.605 13.1421C244.525 12.9116 244.364 12.7959 244.134 12.7959L239.017 12.7959C238.787 12.7959 238.626 12.9116 238.545 13.1421L237.326 17.354ZM239.189 10.9731C239.137 11.1577 239.206 11.2441 239.39 11.2441L243.766 11.2441C243.95 11.2441 244.013 11.1519 243.967 10.9731L241.707 2.49805C241.673 2.3999 241.638 2.34814 241.61 2.34814L241.558 2.34814C241.506 2.34814 241.477 2.3999 241.46 2.49805L239.201 10.9731L239.189 10.9731Z" fill="#000000" fill-opacity="1.000000" fill-rule="nonzero"/>
		<path id="Vector" d="M258.818 15.8828C258.818 16.0498 258.898 16.1309 259.065 16.1309L265.648 16.1309C265.78 16.1309 265.895 16.1826 265.993 16.2808C266.091 16.3789 266.142 16.5 266.142 16.627L266.142 17.2271C266.142 17.3594 266.091 17.4751 265.993 17.5732C265.895 17.6709 265.78 17.7231 265.648 17.7231L257.725 17.7231C257.593 17.7231 257.478 17.6709 257.38 17.5732C257.283 17.4751 257.231 17.3594 257.231 17.2271L257.231 0.772949C257.231 0.640137 257.283 0.524902 257.38 0.426758C257.478 0.328613 257.593 0.276855 257.725 0.276855L258.323 0.276855C258.455 0.276855 258.57 0.328613 258.674 0.426758C258.772 0.524902 258.823 0.645996 258.823 0.772949L258.823 15.8828L258.818 15.8828Z" fill="#000000" fill-opacity="1.000000" fill-rule="nonzero"/>
	</g>
</svg>
