<svg width="42.000000" height="42.000000" viewBox="0 0 42 42" fill="none" xmlns="http://www.w3.org/2000/svg" xmlns:xlink="http://www.w3.org/1999/xlink">
	<desc>
			Created with Pixso.
	</desc>
	<defs>
		<clipPath id="clip290_206">
			<rect id="Telegram" width="42.000000" height="42.000000" fill="white" fill-opacity="0"/>
		</clipPath>
	</defs>
	<g clip-path="url(#clip290_206)">
		<path id="Subtract" d="M21.1346 32.6094C27.4718 32.6094 32.6091 27.4717 32.6091 21.1348C32.6091 14.7974 27.4718 9.66016 21.1346 9.66016C14.7974 9.66016 9.66003 14.7974 9.66003 21.1348C9.66003 27.4717 14.7974 32.6094 21.1346 32.6094ZM14.579 20.8833C14.579 20.8833 20.2629 18.4653 22.2341 17.6138C22.9899 17.2734 25.5525 16.1831 25.5525 16.1831C25.5525 16.1831 26.7353 15.7065 26.6367 16.8643C26.613 17.209 26.4693 18.1748 26.2924 19.3647C26.2242 19.8228 26.1512 20.314 26.0782 20.8154C25.6839 23.3696 25.2568 26.1626 25.2568 26.1626C25.2568 26.1626 25.1911 26.9458 24.6326 27.082C24.074 27.2183 23.1541 26.6055 22.9899 26.4688C22.9613 26.4468 22.8292 26.3574 22.631 26.2231C21.9158 25.7388 20.3404 24.6714 19.6715 24.085C19.4415 23.8804 19.1786 23.4717 19.7043 22.9951C20.8871 21.8711 22.2999 20.4746 23.1541 19.5894C23.5483 19.1807 23.9426 18.2271 22.2999 19.3848C19.9672 21.0537 17.6674 22.6206 17.6674 22.6206C17.6674 22.6206 17.1417 22.9609 16.156 22.6543C15.1703 22.3481 14.0204 21.939 14.0204 21.939C14.0204 21.939 13.2319 21.4282 14.579 20.8833Z" clip-rule="evenodd" fill="#CECECE" fill-opacity="1.000000" fill-rule="evenodd"/>
	</g>
</svg>
