<svg width="42.000000" height="42.000000" viewBox="0 0 42 42" fill="none" xmlns="http://www.w3.org/2000/svg" xmlns:xlink="http://www.w3.org/1999/xlink">
	<desc>
			Created with Pixso.
	</desc>
	<defs>
		<clipPath id="clip290_215">
			<rect id="Whatsapp" width="42.000000" height="42.000000" fill="white" fill-opacity="0"/>
		</clipPath>
	</defs>
	<g clip-path="url(#clip290_215)">
		<path id="Subtract" d="M10.5 31.5L12.0067 25.9028C10.7916 23.7222 10.4055 21.1777 10.9194 18.7363C11.4332 16.2949 12.8125 14.1201 14.8041 12.6113C16.7958 11.1025 19.2661 10.3604 21.7619 10.5215C24.2577 10.6831 26.6115 11.7363 28.3914 13.4888C30.1713 15.2417 31.2579 17.5757 31.4518 20.0625C31.6456 22.5498 30.9338 25.0234 29.447 27.0293C27.9601 29.0352 25.7979 30.439 23.357 30.9829C20.9162 31.5269 18.3605 31.1748 16.1591 29.9912L10.5 31.5ZM16.4319 27.8965L16.7819 28.1035C18.3765 29.0464 20.239 29.4365 22.0791 29.2134C23.9192 28.9902 25.6336 28.166 26.9551 26.8691C28.2766 25.5728 29.1309 23.8765 29.385 22.0449C29.6391 20.2134 29.2786 18.3496 28.3598 16.7437C27.441 15.1377 26.0154 13.8804 24.3052 13.167C22.595 12.4536 20.6963 12.3247 18.9049 12.7998C17.1136 13.2754 15.5302 14.3286 14.4016 15.7954C13.2729 17.2622 12.6624 19.0601 12.6652 20.9087C12.6636 22.4419 13.0887 23.9453 13.8931 25.252L14.1125 25.6128L13.2702 28.7368L16.4319 27.8965ZM24.9262 22.3462C24.7211 22.1812 24.4808 22.0649 24.2238 22.0063C23.9669 21.9482 23.6998 21.9487 23.4432 22.0088C23.0577 22.1685 22.8085 22.772 22.5594 23.0737C22.5068 23.1465 22.4296 23.1968 22.3423 23.2168C22.2549 23.2363 22.1634 23.2231 22.0848 23.1807C20.6732 22.6289 19.49 21.6177 18.7274 20.3105C18.6624 20.229 18.6315 20.1255 18.6415 20.022C18.6515 19.918 18.7014 19.8223 18.7808 19.7544C19.0587 19.48 19.2626 19.1401 19.374 18.7666C19.3987 18.354 19.304 17.9434 19.1011 17.583C18.9443 17.0781 18.6458 16.6284 18.241 16.2871C18.0322 16.1938 17.8007 16.1621 17.5743 16.1968C17.348 16.2314 17.1367 16.3306 16.9656 16.4824C16.6687 16.7383 16.433 17.0566 16.2759 17.415C16.1189 17.7734 16.0444 18.1626 16.058 18.5537C16.059 18.7729 16.0869 18.9917 16.1411 19.2041C16.2788 19.7153 16.4907 20.2036 16.7698 20.6538C16.9713 20.9985 17.1911 21.3325 17.4283 21.6538C18.1992 22.7095 19.1682 23.6055 20.2816 24.293C20.8402 24.6421 21.4373 24.9258 22.0611 25.1387C22.709 25.4316 23.4244 25.5444 24.1313 25.4644C24.5341 25.4033 24.9157 25.2451 25.2426 25.0024C25.5694 24.7598 25.8315 24.4409 26.0058 24.0737C26.1082 23.8521 26.1393 23.604 26.0948 23.3638C25.988 22.8726 25.3296 22.583 24.9262 22.3462Z" clip-rule="evenodd" fill="#CECECE" fill-opacity="1.000000" fill-rule="evenodd"/>
	</g>
</svg>
