<svg width="42.000000" height="42.000000" viewBox="0 0 42 42" fill="none" xmlns="http://www.w3.org/2000/svg" xmlns:xlink="http://www.w3.org/1999/xlink">
	<desc>
			Created with Pixso.
	</desc>
	<defs>
		<clipPath id="clip290_203">
			<rect id="Youtube" width="42.000000" height="42.000000" fill="white" fill-opacity="0"/>
		</clipPath>
	</defs>
	<g clip-path="url(#clip290_203)">
		<path id="Subtract" d="M32.2614 15.2227C31.9872 14.1919 31.176 13.3784 30.1439 13.0996C28.2777 12.5996 20.7903 12.5996 20.7903 12.5996C20.7903 12.5996 13.3067 12.5996 11.4367 13.0996C10.4084 13.3745 9.59723 14.188 9.31921 15.2227C8.82031 17.0938 8.82031 20.9995 8.82031 20.9995C8.82031 20.9995 8.82031 24.9058 9.31921 26.7764C9.59344 27.8076 10.4046 28.6206 11.4367 28.8994C13.3067 29.3994 20.7903 29.3994 20.7903 29.3994C20.7903 29.3994 28.2777 29.3994 30.1439 28.8994C31.1722 28.6245 31.9834 27.811 32.2614 26.7764C32.7603 24.9058 32.7603 20.9995 32.7603 20.9995C32.7603 20.9995 32.7603 17.0938 32.2614 15.2227ZM18.3986 24.6001L24.6178 20.9995L18.3986 17.3989L18.3986 24.6001Z" clip-rule="evenodd" fill="#CECECE" fill-opacity="1.000000" fill-rule="evenodd"/>
	</g>
</svg>
